<svg id="Layer_2" data-name="Layer 2" xmlns="http://www.w3.org/2000/svg" viewBox="0 0 2656.39 1045.68"><defs><style>.cls-1,.cls-2,.cls-3{fill:none;stroke-miterlimit:10;}.cls-1,.cls-2{stroke:#999;}.cls-1{stroke-width:5px;}.cls-2{stroke-width:3px;}.cls-3{stroke:#e95420;stroke-width:6px;}.cls-4,.cls-5{fill:#666;}.cls-5{fill-rule:evenodd;}</style></defs><title>Artboard 1</title><line class="cls-1" x1="1324.39" y1="241.46" x2="1325.49" y2="801.78"/><path class="cls-2" d="M906.81,381.94h276c76.45,0,139,62.55,139,139h0c0,76.45-62.55,139-139,139H841.41"/><path class="cls-2" d="M134.22,798.94c0-76.45,62.55-139,139-139H842.31"/><path class="cls-2" d="M908.81,381.94h-35.1c-76.45,0-139-62.55-139-139h0"/><path class="cls-2" d="M1174.21,381.94c-76.45,0-139-62.55-139-139h0"/><path class="cls-2" d="M909.31,659.94h-35.1c-76.45,0-139,62.54-139,139h0"/><path class="cls-2" d="M608.31,659.94h-35.1c-76.45,0-139,62.54-139,139h0"/><path class="cls-2" d="M1174.71,659.94c-76.45,0-139,62.54-139,139h0"/><circle class="cls-3" cx="734.56" cy="228.19" r="13.25"/><circle class="cls-3" cx="1035.26" cy="228.19" r="13.25"/><circle class="cls-3" cx="134.21" cy="814.39" r="13.25"/><circle class="cls-3" cx="434.14" cy="814.39" r="13.25"/><circle class="cls-3" cx="735.17" cy="814.39" r="13.25"/><circle class="cls-3" cx="1035.6" cy="814.39" r="13.25"/><path class="cls-2" d="M1743.1,381.94h-276c-76.45,0-139,62.55-139,139h0c0,76.45,62.55,139,139,139h341.4"/><path class="cls-2" d="M2515.69,798.94c0-76.45-62.55-139-139-139H1807.6"/><path class="cls-2" d="M1741.1,381.94h35.1c76.45,0,139-62.55,139-139h0"/><path class="cls-2" d="M1475.7,381.94c76.45,0,139-62.55,139-139h0"/><path class="cls-2" d="M1740.6,659.94h35.1c76.45,0,139,62.54,139,139h0"/><path class="cls-2" d="M2041.6,659.94h35.1c76.45,0,139,62.54,139,139h0"/><path class="cls-2" d="M1475.2,659.94c76.45,0,139,62.54,139,139h0"/><circle class="cls-3" cx="1915.35" cy="228.19" r="13.25"/><circle class="cls-3" cx="1614.65" cy="228.19" r="13.25"/><circle class="cls-3" cx="2515.7" cy="814.39" r="13.25"/><circle class="cls-3" cx="2215.77" cy="814.39" r="13.25"/><circle class="cls-3" cx="1914.74" cy="814.39" r="13.25"/><circle class="cls-3" cx="1614.31" cy="814.39" r="13.25"/><circle class="cls-3" cx="1324.94" cy="228.19" r="13.25"/><circle class="cls-3" cx="1324.94" cy="814.39" r="13.25"/><g id="Page-1"><g id="Template"><g id="logos"><g id="IBM"><g id="ibm-2" data-name="ibm"><path id="Shape" class="cls-4" d="M398.34,914.85v4h29.33v-4Zm33.55,0v4h41.8s-4.21-4-9.83-4Zm49.88,0v4h25.29l-1.4-4Zm43.38,0-1.58,4h25.12v-4Zm-126.81,8.08v4h29.33v-4Zm33.55,0v4h46.54s-.52-3.17-1.58-4Zm49.88,0v4h28.1l-1.4-4Zm40.4,0-1.41,4h27.93v-4Zm-115.4,7.9V935h12.65v-4.21Zm33.55,0V935H453v-4.21Zm24.94,0V935h12.65a12.54,12.54,0,0,0,.88-4.21Zm24.94,0V935h22.48l-1.58-4.21Zm29.16,0L517.78,935h22.83v-4.21Zm-112.59,8.08v4h12.65v-4Zm33.55,0v4h32.49a14.69,14.69,0,0,0,3.52-4Zm49.88,0v4h12.65v-2.28l.88,2.28h23.18l.88-2.28V943h12.82v-4H516.72l-1.23,3.51-1.23-3.51ZM406.77,947v4h12.65v-4Zm33.55,0v4h36a14.69,14.69,0,0,0-3.52-4Zm49.88,0v4h12.65v-4Zm15.11,0,1.58,4h17.39l1.4-4Zm22.48,0v4h12.82v-4Zm-121,7.9v4h12.65v-4Zm33.55,0v4H453v-4Zm24.94,0v4h13.53a12.35,12.35,0,0,0-.88-4Zm24.94,0v4h12.65v-4Zm17.92,0,1.4,4h11.77l1.58-4Zm19.67,0v4h12.82v-4ZM398.52,963v4.22h29.33V963Zm33.37,0v4.22H477c.88-.88,1.58-4.22,1.58-4.22ZM482,963v4.22h20.9V963Zm29,0,1.58,4.22h6l1.41-4.22Zm16.86,0v4.22h21.08V963Zm-129.27,8.08v4h29.33v-4Zm33.37,0v4h31.79c5.62,0,9.84-4,9.84-4Zm50.23,0v4H503v-4Zm31.79,0,1.41,4h.17l1.59-4Zm13.88,0v4h21.08v-4Z"/></g></g></g></g></g><g id="_001" data-name="001"><g id="ubuntu-china"><g id="logos-2" data-name="logos"><g id="Dell"><g id="Dell_logo_2016" data-name="Dell logo 2016"><path id="Shape-2" data-name="Shape" class="cls-4" d="M1031.88,932.1,1019,942a11.3,11.3,0,0,0-10.89-8.58h-9.24v22.77h9.24a11,11,0,0,0,10.89-8.58l12.87,9.9,12.87-9.9v8.58h14.52v-4.62h-9.57V933.42h-5.28V942l-12.21,9.9-2.64-2.31,5.94-4.62,6.27-5-3.63-3-12.21,9.57-2.64-2.31,12.21-9.24-3.63-3ZM1003.83,938h4a5.74,5.74,0,0,1,2.38.53,6.25,6.25,0,0,1,2,1.45,7,7,0,0,1,1.39,2.19,7.53,7.53,0,0,1,.51,2.76,7.36,7.36,0,0,1-.47,2.61,7.06,7.06,0,0,1-1.3,2.22,6.31,6.31,0,0,1-2,1.53,5.78,5.78,0,0,1-2.51.57h-4Zm71.94,13.53v4.62h-14.52V933.42h5.28v18.15Zm-40.26-58.41A51.81,51.81,0,1,0,1087.32,945,52.11,52.11,0,0,0,1035.51,893.16Zm0,5.28a47.54,47.54,0,0,1,9.39.94,46.62,46.62,0,0,1,33.49,27.46,45.93,45.93,0,0,1,2.7,8.74,46.88,46.88,0,0,1,0,18.78,46.15,46.15,0,0,1-2.7,8.74,46.61,46.61,0,0,1-52.27,27.45,45.22,45.22,0,0,1-8.74-2.7,46,46,0,0,1-7.9-4.29,46.42,46.42,0,0,1-19.56-29.2,47.32,47.32,0,0,1,0-18.77,46.11,46.11,0,0,1,7-16.65,46.29,46.29,0,0,1,29.2-19.55,46.8,46.8,0,0,1,9.39-.94Z"/></g></g></g></g></g><g id="layer1"><g id="g3646"><path id="path3346" class="cls-4" d="M137.24,912.94H64.54V899.46h72.7v13.48Zm5.19-18.67H59.35v23.86h83.08Z"/><g id="g3348"><path id="path3350" class="cls-4" d="M64.55,957.57H59.36V933.71h5.19v9.43h9.28v-9.43H79v23.86H73.83v-9.89H64.55v9.89"/></g><g id="g3352"><path id="path3354" class="cls-4" d="M86.88,947.1h6.19c-.12-1.76-.84-3-2.87-3C88.68,944.12,87.34,944.77,86.88,947.1Zm3.93,10.84c-5.26,0-8.85-3.32-8.85-8.78,0-5.31,3.51-9,8.17-9,5.08,0,7.6,3.4,7.6,8.48v1.9H86.88c.61,2.64,2.67,3.32,4.74,3.32a8.12,8.12,0,0,0,4.69-1.37h.19v3.93a9.67,9.67,0,0,1-5.69,1.49"/></g><g id="g3356"><path id="path3358" class="cls-4" d="M111.28,947.56l-2.67,10h-4.54l-5.2-16.8v-.19h5l2.82,10,2.67-10h4l2.71,10,2.87-10h4.77v.19l-5.19,16.8H114l-2.71-10"/></g><g id="g3360"><path id="path3362" class="cls-4" d="M132.17,958c-4.13,0-5.81-1.64-5.81-5.5V933.71h5v18.4c0,1.18.46,1.6,1.45,1.6a3.68,3.68,0,0,0,1.15-.23h.08v4.16a5.83,5.83,0,0,1-1.91.31"/></g><g id="g3364"><path id="path3366" class="cls-4" d="M140.41,947.1h6.18c-.11-1.76-.83-3-2.86-3C142.21,944.12,140.87,944.77,140.41,947.1Zm3.93,10.84c-5.27,0-8.86-3.32-8.86-8.78,0-5.31,3.52-9,8.18-9,5.07,0,7.59,3.4,7.59,8.48v1.9H140.41c.61,2.64,2.67,3.32,4.73,3.32a8.13,8.13,0,0,0,4.7-1.37H150v3.93a9.67,9.67,0,0,1-5.69,1.49"/></g><g id="g3368"><path id="path3370" class="cls-4" d="M172,940.57h3.74v4H172v6.91c0,1.49.57,2.18,2.1,2.18a4.76,4.76,0,0,0,1.52-.23h.12v4a9,9,0,0,1-3.09.5c-4.09,0-5.69-1.87-5.69-6.19v-7.14h-6.46v6.91c0,1.49.58,2.18,2.1,2.18a4.81,4.81,0,0,0,1.53-.23h.12v4a9,9,0,0,1-3.1.5c-4.08,0-5.69-1.87-5.69-6.19v-7.14h-2.59v-4h2.59v-4.66h5v4.66h6.46v-4.66h5v4.66"/></g><g id="g3372"><path id="path3374" class="cls-4" d="M192.67,945.43c2.64,0,3.9-1.49,3.9-3.63s-1.26-3.7-3.9-3.7h-3.28v7.33Zm9.17-3.63c0,5.19-3.48,8-8.75,8h-3.7v7.74H184.2V933.71h8.89c5.27,0,8.75,2.82,8.75,8.09"/></g><g id="g3376"><path id="path3378" class="cls-4" d="M212.91,952.22v-1.45a5.85,5.85,0,0,0-2.79-.57c-1.64,0-2.63.61-2.63,2s1,2,2.48,2A3,3,0,0,0,212.91,952.22Zm.15,3.67a5.71,5.71,0,0,1-4.5,2c-3.32,0-6-2-6-5.61,0-3.32,2.71-5.54,6.6-5.54a13.47,13.47,0,0,1,3.78.58V947c0-1.83-1-2.63-3.74-2.63a9.6,9.6,0,0,0-4.77,1.3h-.19v-4a12.55,12.55,0,0,1,5.84-1.41c5.11,0,7.9,2.44,7.9,6.72v10.64h-4.89v-1.67"/></g><g id="g3380"><path id="path3382" class="cls-4" d="M220.51,949.09a8.5,8.5,0,0,1,8.9-8.9,8,8,0,0,1,4.73,1.3v4.31H234a6.33,6.33,0,0,0-3.89-1.33,4.6,4.6,0,0,0,0,9.2,6.34,6.34,0,0,0,3.89-1.34h.19v4.31a8,8,0,0,1-4.73,1.3c-5,0-8.9-3.39-8.9-8.85"/></g><g id="g3384"><path id="path3386" class="cls-4" d="M242.34,949.85v7.71h-5V933.7h5v13.59l5.08-6.72h5.73v.19L247,948.47l6.11,8.9v.19h-5.77l-5-7.71"/></g><g id="g3388"><path id="path3390" class="cls-4" d="M264.45,952.22v-1.45a5.88,5.88,0,0,0-2.79-.57c-1.64,0-2.63.61-2.63,2s1,2,2.48,2A3,3,0,0,0,264.45,952.22Zm.15,3.67a5.72,5.72,0,0,1-4.5,2c-3.32,0-6-2-6-5.61,0-3.32,2.71-5.54,6.6-5.54a13.47,13.47,0,0,1,3.78.58V947c0-1.83-1-2.63-3.74-2.63a9.6,9.6,0,0,0-4.77,1.3h-.2v-4a12.6,12.6,0,0,1,5.85-1.41c5.12,0,7.9,2.44,7.9,6.72v10.64H264.6v-1.67"/></g><g id="g3392"><path id="path3394" class="cls-4" d="M278,943.32c.92-1.87,2.26-2.94,4.13-2.94a3.88,3.88,0,0,1,1.64.31v4.8h-.19a5.8,5.8,0,0,0-2.22-.38,3.18,3.18,0,0,0-3.2,2.67v9.78h-5v-17H278v2.75"/></g><g id="g3396"><path id="path3398" class="cls-4" d="M297.09,951.8v-5.46a3.73,3.73,0,0,0-3.2-1.76c-2.22,0-3.71,1.61-3.71,4.51s1.49,4.47,3.71,4.47A3.73,3.73,0,0,0,297.09,951.8Zm.16,4a6,6,0,0,1-5,2.14c-4.36,0-7.14-4-7.14-8.86s2.78-8.9,7.14-8.9a6,6,0,0,1,4.88,1.95v-8.43h5v23.85h-4.88v-1.75"/></g><g id="g3400"><path id="path3402" class="cls-4" d="M59.36,965.35H74.1v2.9H62.68v7.29H73v2.83H62.68v7.94H74.1v2.9H59.36V965.35"/></g><g id="g3404"><path id="path3406" class="cls-4" d="M86.28,972.06c3.78,0,5.88,2.49,5.88,6.57V989.2H89V978.71c0-2.18-1.11-3.75-3.52-3.75A4.42,4.42,0,0,0,81.24,978V989.2H78.07V972.41h3.17v2.44a5.81,5.81,0,0,1,5-2.79"/></g><g id="g3408"><path id="path3410" class="cls-4" d="M100.67,972.42H105v2.71h-4.31v9c0,1.9,1,2.56,2.79,2.56a4.13,4.13,0,0,0,1.41-.23H105v2.71a5.11,5.11,0,0,1-2,.34c-3.94,0-5.5-1.8-5.5-5.08v-9.35H94.6v-2.71h2.9V968h3.17v4.46"/></g><g id="g3412"><path id="path3414" class="cls-4" d="M110.29,979.18h8.37c-.12-2.49-1.34-4.39-3.94-4.39C112.32,974.79,110.75,976.58,110.29,979.18Zm5,10.38c-4.93,0-8.29-3.28-8.29-8.55s3.13-8.93,7.68-8.93,7,3.32,7,8.24v1.45H110.18a5.14,5.14,0,0,0,5.54,5,7.14,7.14,0,0,0,4.69-1.53h.12v2.79a8.32,8.32,0,0,1-5.23,1.49"/></g><g id="g3416"><path id="path3418" class="cls-4" d="M128.61,975a4.44,4.44,0,0,1,4.16-2.86,4,4,0,0,1,1.64.27v3.13h-.11a4.86,4.86,0,0,0-2-.35,3.87,3.87,0,0,0-3.7,3.06v11h-3.17V972.42h3.17V975"/></g><g id="g3420"><path id="path3422" class="cls-4" d="M144.65,986.69c3.13,0,5-2.48,5-5.88s-1.83-5.87-5-5.87a4.74,4.74,0,0,0-4.16,2.67v6.45A4.7,4.7,0,0,0,144.65,986.69Zm.53-14.62c5,0,7.68,4.09,7.68,8.74s-2.68,8.75-7.68,8.75a6.06,6.06,0,0,1-4.69-2.22v8.33h-3.17V972.42h3.17v1.91a6,6,0,0,1,4.69-2.26"/></g><g id="g3424"><path id="path3426" class="cls-4" d="M159.77,975a4.43,4.43,0,0,1,4.16-2.86,4.06,4.06,0,0,1,1.64.27v3.13h-.12a4.81,4.81,0,0,0-2-.35,3.86,3.86,0,0,0-3.7,3.06v11H156.6V972.42h3.17V975"/></g><g id="g3428"><path id="path3430" class="cls-4" d="M170.16,965.63a2,2,0,1,1,0,4,2,2,0,1,1,0-4"/></g><path id="path3432" class="cls-4" d="M168.59,989.21h3.17v-16.8h-3.17Z"/><g id="g3434"><path id="path3436" class="cls-4" d="M183.06,979.4c2.4.76,5.08,1.75,5.08,5,0,3.44-2.83,5.19-6.45,5.19A9.76,9.76,0,0,1,176,988v-3h.15a8.2,8.2,0,0,0,5.5,1.87c1.79,0,3.4-.69,3.4-2.14s-1.34-1.83-4-2.71c-2.36-.76-5-1.64-5-4.81s2.67-5.15,6.07-5.15a9.11,9.11,0,0,1,5.16,1.37v3.06h-.12a7.61,7.61,0,0,0-5-1.76c-2,0-3.09.88-3.09,2.06,0,1.34,1.22,1.72,3.93,2.6"/></g><g id="g3438"><path id="path3440" class="cls-4" d="M194.17,979.18h8.36c-.11-2.49-1.33-4.39-3.93-4.39C196.2,974.79,194.63,976.58,194.17,979.18Zm5,10.38c-4.92,0-8.28-3.28-8.28-8.55s3.13-8.93,7.67-8.93,7,3.32,7,8.24v1.45H194.06a5.13,5.13,0,0,0,5.53,5,7.14,7.14,0,0,0,4.7-1.53h.12v2.79a8.33,8.33,0,0,1-5.24,1.49"/></g></g></g><g id="layer1-2" data-name="layer1"><g id="g23944"><g id="g13605"><path id="path13607" class="cls-4" d="M749,932.4a13.92,13.92,0,0,0-10.91,5.36h0V933h-9.18v33.45h9.18v-19a7.17,7.17,0,0,1,7.57-7.07c3.81,0,7.74,2.64,7.74,7.07v19h9.18V945.68c0-7.7-5.5-13.28-13.58-13.28"/></g><g id="g13609"><path id="path13611" class="cls-4" d="M827.9,933l-8.31,22.79L811.29,933H800.8l13.76,33.44h10.07L838.39,933Z"/></g><g id="g13613"><path id="path13615" class="cls-4" d="M701.51,943a8.56,8.56,0,0,1,7.07-3.33,7.69,7.69,0,0,1,7.12,4.68L699.65,951a10.78,10.78,0,0,1,1.86-8m17.65,13.09c-3.86,2.86-6.07,3.54-9.6,3.54a10.19,10.19,0,0,1-7.41-2.71l23.49-9.74a18.17,18.17,0,0,0-4-9.34c-3.09-3.59-7.66-5.48-13.22-5.48-10.1,0-17.71,7.45-17.71,17.29,0,10.1,7.63,17.29,18.73,17.29,6.21,0,12.57-3,15.54-6.39Z"/></g><g id="g13617"><path id="path13619" class="cls-4" d="M689.82,958H669V923h-9.32v43.45h30.19Z"/></g><g id="g13621"><path id="path13623" class="cls-4" d="M854.88,940.27c-5.13,0-8.85,3.89-8.85,9.42a9.1,9.1,0,0,0,9,9.41c5.13,0,8.85-4,8.85-9.41a9.11,9.11,0,0,0-9-9.42m0,26.71c-10,0-17.91-7.49-17.91-17.29s7.92-17.29,18-17.29,17.91,7.48,17.91,17.29S865,967,854.88,967"/></g><g id="g13625"><path id="path13627" class="cls-4" d="M784.16,940.27c-5.13,0-8.85,3.89-8.85,9.42a9.1,9.1,0,0,0,9,9.41c5.13,0,8.85-4,8.85-9.41a9.11,9.11,0,0,0-9-9.42m0,26.71c-10,0-17.91-7.49-17.91-17.29s7.92-17.29,18-17.29,17.91,7.48,17.91,17.29-7.92,17.29-18,17.29"/></g></g></g><g id="Page-1-2" data-name="Page-1"><g id="huawei"><polygon id="path3350-2" data-name="path3350" class="cls-5" points="1570.74 987.96 1579.44 987.96 1579.44 981.01 1583.35 981.01 1583.35 998.17 1579.44 998.17 1579.44 991 1570.74 991 1570.74 998.17 1566.82 998.17 1566.82 981.01 1570.74 981.01 1570.74 987.96"/><path id="path3362-2" data-name="path3362" class="cls-5" d="M1590.44,991.29c0,3,1,4.31,4.19,4.31s4.17-1.27,4.17-4.31V981h3.91v10.37c0,2.2-.26,3.7-1.1,4.62-1.52,1.67-3.75,2.36-7,2.36s-5.48-.69-7-2.36c-.84-.93-1.06-2.44-1.06-4.62V981h3.89Z"/><path id="path3366-2" data-name="path3366" class="cls-5" d="M1610.54,991h5.54l-2.82-6.6Zm4.94-10,7.92,17.16h-4.35l-1.71-4.08h-8.08l-1.64,4.08h-4.15l7.86-17.16Z"/><polygon id="path3370-2" data-name="path3370" class="cls-5" points="1625.17 981.01 1629.47 994.2 1633.09 981.01 1637.7 981.01 1641.86 994.2 1645.87 981.01 1649.89 981.01 1644.15 998.17 1639.36 998.17 1635.4 985.37 1631.93 998.17 1627.16 998.17 1620.97 981.01 1625.17 981.01"/><path id="path3374-2" data-name="path3374" class="cls-5" d="M1655.15,988H1666v3h-10.83c0,3.09,1.34,4.22,4.43,4.22h6.4v3h-6.59c-2.24,0-4-.16-5.8-1.5s-2.84-3.67-2.84-6.77c0-6.06,2.76-8.89,8.76-8.89H1666v3h-6.4c-2.84,0-4.25,1.28-4.41,4"/><polygon id="path3376" class="cls-5" points="1669.41 981.01 1673.5 981.01 1673.5 998.17 1669.41 998.17 1669.41 981.01"/><path id="path3402-2" data-name="path3402" class="cls-5" d="M1574.46,923.46a15.72,15.72,0,0,0,5.41,10.69c8.13,7.93,27.83,17.93,32.4,20.21.06,0,.3.09.44-.09a.32.32,0,0,0,.09-.38,243.75,243.75,0,0,0-29.67-48.15s-9.33,8.86-8.67,17.72"/><path id="path3428" class="cls-5" d="M1576.46,961.89c3.55,6.34,9.55,11.27,15.78,9.75,4.32-1.07,14.06-7.87,17.27-10.18h0c.25-.22.18-.4.18-.4a.47.47,0,0,0-.43-.3h0Z"/><path id="path3454" class="cls-5" d="M1568.62,947.17A19.48,19.48,0,0,0,1579,957a19.87,19.87,0,0,0,6.27,1.37c.49.09,19.5,0,24.59,0a.43.43,0,0,0,.34-.22c.16-.26-.12-.5-.12-.5h0c-14.4-9.71-42.31-24.62-42.31-24.62h0a19.36,19.36,0,0,0,.89,14.18"/><path id="path3480" class="cls-5" d="M1607.06,892.59a15.21,15.21,0,0,0-10.74,10.11c-1.58,5,0,10.4,0,10.4,2.89,12.86,17.15,34,20.22,38.42h0c.22.22.38.13.38.13h0a.41.41,0,0,0,.32-.4c4.71-47.17-5-59.67-5-59.67-1.42.13-5.27,1-5.27,1"/><path id="path3506" class="cls-5" d="M1622.93,951.28h0a.41.41,0,0,0,.26.37h0a.39.39,0,0,0,.47-.19h0c3.15-4.54,17.32-25.57,20.22-38.37,0,0,1.54-6.2,0-10.39a15.16,15.16,0,0,0-10.83-10.11,51.55,51.55,0,0,0-5.16-1s-9.71,12.51-5,59.7"/><path id="path3532" class="cls-5" d="M1631,960.77s-.3.05-.37.26a.41.41,0,0,0,.13.43h0c3.12,2.25,12.63,8.9,17.22,10.2,0,0,8.48,2.88,15.83-9.76L1631,960.77Z"/><path id="path3558" class="cls-5" d="M1630.23,957.6h0a.45.45,0,0,0-.17.48s.14.24.34.24h0c5.15,0,24.69,0,25.18-.06a19.6,19.6,0,0,0,5.65-1.3,19.2,19.2,0,0,0,10.54-10.1,19.82,19.82,0,0,0,.74-14s-27.88,15-42.28,24.68"/><path id="path3584" class="cls-5" d="M1627.5,953.75h0a.44.44,0,0,0,.09.52.42.42,0,0,0,.44,0c4.7-2.34,24.24-12.27,32.33-20.16,0,0,5.13-4.12,5.4-10.73.59-9.18-8.64-17.68-8.64-17.68a243.48,243.48,0,0,0-29.63,48"/></g></g><rect class="cls-4" x="1883.05" y="960.07" width="7.64" height="30.27"/><path class="cls-4" d="M1952.27,968.74a13.31,13.31,0,0,0-6.43-1.62c-4.93,0-8.36,3.44-8.36,8.08,0,4.49,3.29,8.08,8.36,8.08a13.46,13.46,0,0,0,6.43-1.61v8.13a24.78,24.78,0,0,1-7,1.07c-8.59,0-16.12-5.92-16.12-15.67,0-9.05,6.81-15.67,16.12-15.67a23.4,23.4,0,0,1,7,1.08v8.13Z"/><path class="cls-4" d="M1872.56,968.74a13.31,13.31,0,0,0-6.43-1.62c-4.94,0-8.37,3.44-8.37,8.08,0,4.49,3.28,8.08,8.37,8.08a13.54,13.54,0,0,0,6.43-1.61v8.13a24.9,24.9,0,0,1-7,1.07c-8.58,0-16.11-5.92-16.11-15.67,0-9.05,6.82-15.67,16.11-15.67a23.73,23.73,0,0,1,7,1.08v8.13Z"/><path class="cls-4" d="M1992.29,975.2a16,16,0,1,1-16-15.67,15.53,15.53,0,0,1,16,15.67Zm-16-8a8,8,0,1,0,7.89,8,7.83,7.83,0,0,0-7.89-8Z"/><path class="cls-4" d="M1919.66,966.94a27.08,27.08,0,0,0-6-.91c-3.08,0-4.74,1-4.74,2.47,0,1.85,2.25,2.49,3.5,2.89l2.12.67c5,1.57,7.22,5,7.22,8.65,0,7.61-6.69,10.16-12.54,10.16a46,46,0,0,1-8.25-.82v-7a28.92,28.92,0,0,0,7.22,1.12c3.79,0,5.55-1.1,5.55-2.82,0-1.54-1.51-2.42-3.42-3-.45-.15-1.15-.36-1.62-.53-4.26-1.34-7.81-3.83-7.81-8.84,0-5.67,4.24-9.47,11.29-9.47a32.9,32.9,0,0,1,7.45,1v6.46Z"/><path class="cls-4" d="M1841.37,927.53a3.79,3.79,0,0,0-7.58,0v8a3.79,3.79,0,1,0,7.58,0Z"/><path class="cls-4" d="M1862.2,917.11a3.8,3.8,0,0,0-7.59,0v18.37a3.8,3.8,0,1,0,7.59,0Z"/><path class="cls-4" d="M1883,902.84a3.8,3.8,0,0,0-7.59,0V943a3.8,3.8,0,0,0,7.59,0Z"/><path class="cls-4" d="M1903.85,917.11a3.79,3.79,0,0,0-7.58,0v18.37a3.79,3.79,0,1,0,7.58,0Z"/><path class="cls-4" d="M1924.67,927.53a3.78,3.78,0,0,0-7.56,0v8a3.78,3.78,0,1,0,7.56,0Z"/><path class="cls-4" d="M1945.51,917.11a3.79,3.79,0,0,0-7.57,0v18.37a3.79,3.79,0,1,0,7.57,0Z"/><path class="cls-4" d="M1966.34,902.84a3.78,3.78,0,1,0-7.56,0V943a3.78,3.78,0,1,0,7.56,0Z"/><path class="cls-4" d="M1987.17,917.11a3.8,3.8,0,0,0-7.59,0v18.37a3.8,3.8,0,1,0,7.59,0Z"/><path class="cls-4" d="M2008,927.53a3.79,3.79,0,0,0-7.57,0v8a3.79,3.79,0,1,0,7.57,0Z"/><path id="text5083-9" class="cls-4" d="M664.27,136.54H651a14.11,14.11,0,0,1-4-.59,10.36,10.36,0,0,1-6.07-5.59,20.06,20.06,0,0,1-2-9.24,21.27,21.27,0,0,1,1.81-9,11.06,11.06,0,0,1,5.64-5.91,14.7,14.7,0,0,1,5.82-1.21h12.06v6H651.65q-3.06,0-4.44,3.47a19.37,19.37,0,0,0-1.08,7.08,13.09,13.09,0,0,0,1.38,6.27,4.92,4.92,0,0,0,4.48,3l12.28-.05v5.73m22.17.13H675.93a8.48,8.48,0,0,1-6.68-3.42,12.35,12.35,0,0,1-2.8-8,12.58,12.58,0,0,1,3.06-8.48q3.11-3.62,6.89-3.61h10V118h-7.32a9.09,9.09,0,0,0-2.37.27,4.13,4.13,0,0,0-1.77.94,4.68,4.68,0,0,0-1.51,3.66h12.93v4.87H673.48a7.14,7.14,0,0,0,.21,1.85,4.26,4.26,0,0,0,1,1.48,3.83,3.83,0,0,0,1.73,1,12,12,0,0,0,2.5.22h7.54v4.37m24.57-.13h-6V121.16a2,2,0,0,0-.26-1,3.47,3.47,0,0,0-.73-.94,2.88,2.88,0,0,0-2-.77h-5.86v18.13h-6V113.18h11.46a19.44,19.44,0,0,1,4.44.36,5.87,5.87,0,0,1,3.45,2.39,8.31,8.31,0,0,1,1.46,4.74v15.87m17.2-18.49h-5.82v10.6a3.25,3.25,0,0,0,1,2.39,4.17,4.17,0,0,0,2.85.94H728v4.56h-5.56a5.6,5.6,0,0,1-4.26-1.9,5.31,5.31,0,0,1-1.34-2.48,14.88,14.88,0,0,1-.3-3.2V118.05H712.7v-4.87h3.79V105h5.9v8.21h5.82v4.87m35.16,2.66q0,9.2-4.87,13.17-4,3.19-11.55,3.2-8.4,0-12.41-3.7-4.38-4-4.39-13,0-7.35,3.92-11.45,4.26-4.47,12.75-4.47,9.36,0,13.19,4.29,3.36,3.78,3.36,12m-7.67-.18a11.85,11.85,0,0,0-2.11-7.4q-2.37-3.06-7-3.06a7.89,7.89,0,0,0-6.9,3.29,12.18,12.18,0,0,0-1.94,7.17q0,5.1,1.55,7.53c1.44,2.26,4.1,3.38,8,3.38,3.28,0,5.57-1.09,6.9-3.29q1.54-2.57,1.55-7.62m42.15,6.22a9.9,9.9,0,0,1-2.62,7,8.69,8.69,0,0,1-6.68,2.84l-21.33,0v-5.68H784.8a5,5,0,0,0,3-.86,3.15,3.15,0,0,0,1.38-2.7q0-4-5.43-4h-8.87a10,10,0,0,1-6.72-2.48,7.94,7.94,0,0,1-2.89-6.31,9,9,0,0,1,2.8-6.86,10.49,10.49,0,0,1,7.45-2.66h20.38v5.41h-18a3.81,3.81,0,0,0-2.46,1.09,3.16,3.16,0,0,0-1.2,2.48,3.66,3.66,0,0,0,1.16,2.75,4.16,4.16,0,0,0,2.88,1.08h9.78a9.94,9.94,0,0,1,7.16,2.48,8.43,8.43,0,0,1,2.62,6.49"/><path id="path12808" class="cls-4" d="M713.16,59.33l2.39,2.37-2.39,2.37H696.38V72L686.15,61.7l10.23-10.09v7.72Z"/><path id="path12774" class="cls-4" d="M720.76,56.54l-2.37,2.39L716,56.54V39.76h-7.9l10.27-10.23,10.09,10.23h-7.72Z"/><path id="path12784" class="cls-4" d="M723.54,64.14l-2.38-2.37,2.38-2.37h16.78V51.5l10.24,10.27L740.32,71.86V64.14Z"/><path id="path12796" class="cls-4" d="M716,66.93l2.37-2.39,2.37,2.39V83.71h7.89L718.32,93.94l-10.1-10.23H716Z"/><path id="path12796-2" data-name="path12796" class="cls-4" d="M720.75,56.3l-2.37,2.39L716,56.3V39.52h-7.9l10.27-10.23,10.09,10.23h-7.72Z"/><path class="cls-4" d="M716.57,60H695.38V38.76h21.19Zm-20.39-.8h19.59V39.56H696.18Z"/><path class="cls-4" d="M741.32,60H720.14V38.76h21.18Zm-20.38-.8h19.59V39.56H720.94Z"/><path class="cls-4" d="M741.32,84.71H720.14V63.52h21.18Zm-20.38-.8h19.59V64.32H720.94Z"/><path class="cls-4" d="M716.57,84.71H695.38V63.52h21.19Zm-20.39-.8h19.59V64.32H696.18Z"/><path class="cls-4" d="M700.85,76.72l-15-15,15-15,15,15ZM687,61.73l13.86,13.86L714.7,61.73,700.85,47.88Z"/><path class="cls-4" d="M718.35,59.21l-15-15,15-15,15,15Zm-13.85-15,13.85,13.85L732.2,44.23,718.35,30.38Z"/><path class="cls-4" d="M735.86,76.72l-15-15,15-15,15,15ZM722,61.73l13.85,13.86,13.85-13.86L735.86,47.88Z"/><path class="cls-4" d="M718.35,94.22l-15-15,15-15,15,15Zm-13.85-15,13.85,13.85L732.2,79.24,718.35,65.39Z"/><path class="cls-4" d="M1252.46,136.06q-2,.49-5.2,1.05a44.53,44.53,0,0,1-7.47.55,15.78,15.78,0,0,1-6.21-1.08,10,10,0,0,1-4.06-3,12.41,12.41,0,0,1-2.21-4.64,24.3,24.3,0,0,1-.68-5.94V105h5.72v16.72q0,5.85,1.85,8.37t6.21,2.52c.61,0,1.25,0,1.9-.06s1.27-.1,1.85-.16l1.57-.18a4,4,0,0,0,1-.22V105h5.72v31.05Z"/><path class="cls-4" d="M1266.42,106.42a15.14,15.14,0,0,1,3.17-1.41,14.85,14.85,0,0,1,4.88-.74,14.48,14.48,0,0,1,6.12,1.23,12.72,12.72,0,0,1,4.52,3.44,15.29,15.29,0,0,1,2.8,5.29,23,23,0,0,1,.95,6.77,20.4,20.4,0,0,1-1.13,7,14.68,14.68,0,0,1-3.23,5.25,14.11,14.11,0,0,1-5,3.32,17.86,17.86,0,0,1-6.64,1.17,40.2,40.2,0,0,1-7.07-.55q-3.08-.55-5-1.11V90.25l5.72-1v17.15Zm0,25.58a16.85,16.85,0,0,0,2.43.46,28.17,28.17,0,0,0,3.9.22,9.5,9.5,0,0,0,7.38-3q2.77-3,2.77-8.64a21.25,21.25,0,0,0-.49-4.62,10.46,10.46,0,0,0-1.6-3.72,7.84,7.84,0,0,0-2.86-2.46,9.28,9.28,0,0,0-4.21-.89,11.4,11.4,0,0,0-4.31.8,12,12,0,0,0-3,1.66Z"/><path class="cls-4" d="M1320.78,136.06q-2,.49-5.2,1.05a44.53,44.53,0,0,1-7.47.55,15.78,15.78,0,0,1-6.21-1.08,10,10,0,0,1-4.06-3,12.26,12.26,0,0,1-2.21-4.64A23.82,23.82,0,0,1,1295,123V105h5.72v16.72q0,5.85,1.84,8.37t6.21,2.52c.62,0,1.25,0,1.91-.06s1.27-.1,1.84-.16l1.57-.18a4.19,4.19,0,0,0,1-.22V105h5.72v31.05Z"/><path class="cls-4" d="M1329,105.93q2-.5,5.22-1a45.08,45.08,0,0,1,7.5-.56,16.15,16.15,0,0,1,6.34,1.08,10,10,0,0,1,4,3,11.72,11.72,0,0,1,2.12,4.64,27,27,0,0,1,.61,6V137h-5.72V120.26a26.92,26.92,0,0,0-.4-5,8.41,8.41,0,0,0-1.32-3.39,5.18,5.18,0,0,0-2.46-1.87,10.74,10.74,0,0,0-3.81-.59c-.62,0-1.25,0-1.91.07s-1.28.09-1.87.15-1.13.13-1.6.22l-1,.18v27H1329v-31Z"/><path class="cls-4" d="M1368.06,105h12.12v4.8h-12.12v14.75a17.55,17.55,0,0,0,.37,4,6.11,6.11,0,0,0,1.11,2.46,4,4,0,0,0,1.84,1.26,8.09,8.09,0,0,0,2.59.37,12.09,12.09,0,0,0,4.18-.59c1-.38,1.72-.66,2.09-.83l1.23,4.68a24.24,24.24,0,0,1-3,1.1,16.69,16.69,0,0,1-5,.68,15,15,0,0,1-5.38-.83,7.79,7.79,0,0,1-3.41-2.49,9.89,9.89,0,0,1-1.81-4.09,26.8,26.8,0,0,1-.53-5.63V96.09l5.72-1V105Z"/><path class="cls-4" d="M1411.29,136.06q-2,.49-5.2,1.05a44.53,44.53,0,0,1-7.47.55,15.78,15.78,0,0,1-6.21-1.08,10,10,0,0,1-4.06-3,12.41,12.41,0,0,1-2.21-4.64,24.3,24.3,0,0,1-.68-5.94V105h5.72v16.72q0,5.85,1.85,8.37t6.21,2.52c.61,0,1.25,0,1.9-.06s1.27-.1,1.85-.16l1.57-.18a4,4,0,0,0,1-.22V105h5.72Z"/><path class="cls-4" d="M1429.49,89.26a12.92,12.92,0,1,0,12.91,12.92A12.92,12.92,0,0,0,1429.49,89.26Zm2.74,4.85a1.66,1.66,0,1,1,.61,2.26A1.66,1.66,0,0,1,1432.23,94.11Zm-11.1,9.73a1.66,1.66,0,1,1,1.66-1.66A1.66,1.66,0,0,1,1421.13,103.84Zm1.46.16a2.34,2.34,0,0,0,0-3.64,7.2,7.2,0,0,1,2.94-4.12l1.24,2.06a4.73,4.73,0,0,0,0,7.75l-1.24,2.07A7.23,7.23,0,0,1,1422.59,104Zm11.91,6.86a1.66,1.66,0,1,1,.61-2.27A1.67,1.67,0,0,1,1434.5,110.86Zm0-3.62a2.34,2.34,0,0,0-3.15,1.82,7.15,7.15,0,0,1-1.87.25,7,7,0,0,1-3.16-.74l1.16-2.1a4.64,4.64,0,0,0,2,.44,4.74,4.74,0,0,0,4.72-4.31l2.4,0A7.15,7.15,0,0,1,1434.51,107.24Zm-.3-5.48a4.73,4.73,0,0,0-6.71-3.88l-1.17-2.1a7.28,7.28,0,0,1,5-.49A2.37,2.37,0,0,0,1432.5,97a2.31,2.31,0,0,0,2,.15,7.18,7.18,0,0,1,2.1,4.61Z"/><g id="_001-2" data-name="001"><g id="ubuntu"><g id="logos-3" data-name="logos"><g id="Windows"><g id="Windows_darkblue_2012_svg" data-name="Windows darkblue 2012 svg"><path id="svg_2" data-name="svg 2" class="cls-4" d="M1928.89,100.47l-10.37,36.38h-5.09l-7.43-26.6a11.42,11.42,0,0,1-.59-3.72h-.19c-.2,1.18-.4,2.55-.59,3.72l-7.63,26.6h-4.89l-10.57-36.38h4.7l7.82,28a11.2,11.2,0,0,1,.59,3.72h.2a18.22,18.22,0,0,1,.78-3.72l8-28h4.11l7.63,28.17c.19,1,.39,2.15.58,3.32h.2a20,20,0,0,1,.78-3.52l7.44-28Z"/><path id="svg_3" data-name="svg 3" class="cls-4" d="M1934.75,104.19a2.68,2.68,0,1,1,2-.79A2.5,2.5,0,0,1,1934.75,104.19Zm2,32.66h-4.11v-26h4.11Z"/><path id="svg_4" data-name="svg 4" class="cls-4" d="M1964.69,136.85h-4.11V122c0-5.48-2-8.22-6.07-8.22a6.29,6.29,0,0,0-5.08,2.35,8.52,8.52,0,0,0-2,5.87v14.86h-4.11v-26h4.11v4.3h.2a9.37,9.37,0,0,1,8.6-4.89c2.94,0,5.09,1,6.46,2.74a13,13,0,0,1,2.35,8l-.39,15.84Z"/><path id="svg_5" data-name="svg 5" class="cls-4" d="M1994.23,136.85h-4.11v-4.49h-.2a9.75,9.75,0,0,1-9,5.08,9.56,9.56,0,0,1-7.82-3.52c-2-2.35-2.94-5.48-2.94-9.59,0-4.3,1.18-7.82,3.33-10.36a10.85,10.85,0,0,1,8.61-3.92c3.52,0,6.26,1.37,7.82,4.31h.2v-16h4.11Zm-4.11-11.73V121.2a7.34,7.34,0,0,0-7.44-7.43,7.72,7.72,0,0,0-6.06,2.74,13,13,0,0,0-2.15,7.63,11.19,11.19,0,0,0,2.15,7,6.79,6.79,0,0,0,5.67,2.54,7.06,7.06,0,0,0,5.68-2.54A8.51,8.51,0,0,0,1990.12,125.12Z"/><path id="svg_6" data-name="svg 6" class="cls-4" d="M2012.42,137.44c-3.91,0-6.85-1.17-9.2-3.72a13.17,13.17,0,0,1-3.52-9.58c0-4.3,1.18-7.83,3.52-10.17,2.35-2.55,5.68-3.72,9.59-3.72s6.85,1.17,9,3.52,3.32,5.67,3.32,10a14.09,14.09,0,0,1-3.52,10C2019.27,136.27,2016.33,137.44,2012.42,137.44Zm.39-23.67a7.84,7.84,0,0,0-6.26,2.74c-1.57,1.76-2.35,4.3-2.35,7.43a10.38,10.38,0,0,0,2.35,7.24,8.13,8.13,0,0,0,6.26,2.74,7.72,7.72,0,0,0,6.26-2.54,12,12,0,0,0,2.15-7.44,11.6,11.6,0,0,0-2.15-7.43A7.29,7.29,0,0,0,2012.81,113.77Z"/><path id="svg_7" data-name="svg 7" class="cls-4" d="M2062.89,110.84l-7.83,26h-4.3l-5.28-18.58a9.54,9.54,0,0,1-.39-2.35h-.2a6.76,6.76,0,0,1-.58,2.35l-5.87,18.58h-4.11l-7.83-26h4.31l5.47,19.56a7.18,7.18,0,0,1,.4,2.35h.19a10,10,0,0,1,.39-2.35l6.07-19.56H2047l5.48,19.56c.2.59.2,1.37.39,2.35h.2a14,14,0,0,1,.39-2.35l5.28-19.56Z"/><path id="svg_8" data-name="svg 8" class="cls-4" d="M2064.85,135.88v-4.5a11.78,11.78,0,0,0,7.43,2.54c3.72,0,5.48-1.17,5.48-3.72a4,4,0,0,0-.39-1.76c-.4-.39-.79-1-1.18-1.37a5.94,5.94,0,0,0-2-1c-.79-.4-1.57-.59-2.35-1-1.18-.39-2.15-1-3.13-1.37a8.5,8.5,0,0,1-2.15-1.57,6.85,6.85,0,0,1-1.37-2,9.82,9.82,0,0,1-.39-2.55,6.39,6.39,0,0,1,.78-3.32,8.45,8.45,0,0,1,2.15-2.35,9.06,9.06,0,0,1,3.13-1.37,11.48,11.48,0,0,1,3.72-.39,15.27,15.27,0,0,1,6.06,1.17v4.31a12.57,12.57,0,0,0-6.65-2,7.19,7.19,0,0,0-2.15.2,3.87,3.87,0,0,0-1.57.78,5,5,0,0,0-1,1.17,3.63,3.63,0,0,0-.4,1.57,5.67,5.67,0,0,0,.4,1.76,3.23,3.23,0,0,0,1.17,1.17,7.05,7.05,0,0,0,1.76,1c.59.2,1.37.59,2.35,1,1.17.39,2.15,1,3.13,1.37a7,7,0,0,1,2.34,1.56,7.7,7.7,0,0,1,1.57,2,6.26,6.26,0,0,1,.59,2.74,5.93,5.93,0,0,1-.79,3.32,6.75,6.75,0,0,1-2.34,2.35,8.57,8.57,0,0,1-3.33,1.37,12.68,12.68,0,0,1-3.91.39,15.66,15.66,0,0,1-7-1.56Z"/><polygon id="svg_23" data-name="svg 23" class="cls-4" points="1828.92 117.29 1863.55 117.29 1863.55 87.36 1828.92 92.45 1828.92 117.29"/><polygon id="svg_24" data-name="svg 24" class="cls-4" points="1826.57 117.29 1826.57 92.64 1801.53 96.36 1801.53 117.29 1826.57 117.29"/><polygon id="svg_25" data-name="svg 25" class="cls-4" points="1826.57 119.83 1801.53 119.83 1801.53 140.96 1826.57 144.68 1826.57 119.83"/><polygon id="svg_26" data-name="svg 26" class="cls-4" points="1828.92 119.83 1828.92 145.07 1863.55 150.16 1863.55 119.83 1828.92 119.83"/></g></g></g></g></g><g id="g12"><g id="g164"><g id="g166"><g id="g172"><path id="path174" class="cls-4" d="M1605.54,135.25l-9-24.92a4.29,4.29,0,0,1-.28-1.2,2.17,2.17,0,0,1,2.22-2.11,2.31,2.31,0,0,1,2.22,1.83l7.42,21.47,7.47-21.53a2.25,2.25,0,0,1,2.16-1.77h.23a2.32,2.32,0,0,1,2.28,1.77l7.41,21.53,7.54-21.59a2.14,2.14,0,0,1,2.1-1.71,2.11,2.11,0,0,1,2.17,2,4.29,4.29,0,0,1-.28,1.2l-9,25a2.6,2.6,0,0,1-2.4,2h-.17a2.46,2.46,0,0,1-2.4-2l-7.35-21.18-7.41,21.18a2.46,2.46,0,0,1-2.4,2H1608a2.61,2.61,0,0,1-2.45-2"/></g><g id="g176"><path id="path178" class="cls-4" d="M1670.79,109.2A2.21,2.21,0,0,1,1673,107a2.19,2.19,0,0,1,2.23,2.23v5c2.17-4.91,7-7.23,10.17-7.23a2.11,2.11,0,0,1,2.17,2.23,2.18,2.18,0,0,1-1.94,2.23c-5.72.68-10.4,5-10.4,13.48v10a2.17,2.17,0,0,1-2.16,2.22,2.19,2.19,0,0,1-2.23-2.22V109.2Z"/></g><g id="g180"><path id="path182" class="cls-4" d="M1701.64,137.48c-8,0-14.45-6.17-14.45-15.21v-.12c0-8.42,5.88-15.2,13.89-15.2,8.55,0,13.43,7.06,13.43,14.81a2,2,0,0,1-2,2h-20.92c.61,6.33,5,9.89,10.18,9.89a11.78,11.78,0,0,0,8.34-3.4,1.86,1.86,0,0,1,1.23-.5,1.85,1.85,0,0,1,1.23,3.28,14.66,14.66,0,0,1-10.91,4.41m8.56-16.91c-.45-5.31-3.48-9.95-9.24-9.95-5,0-8.84,4.24-9.4,9.95Z"/></g><g id="g184"><path id="path186" class="cls-4" d="M1639.61,128.33v-.12c0-6.2,5.13-9.51,12.58-9.51a31,31,0,0,1,9.06,1.26v-1c0-5.3-3.25-8-8.77-8a14.84,14.84,0,0,0-6.85,1.34,2.35,2.35,0,0,1-.79.17,2,2,0,0,1-1.95-1.88,1.81,1.81,0,0,1,1.2-1.82,19.56,19.56,0,0,1,8.85-1.68c4.15,0,7.34,1.08,9.5,3.24,2,2,3,4.84,3,8.6v16.25a2.08,2.08,0,0,1-2.11,2.16,2,2,0,0,1-2.1-2.05v-2.8a12.89,12.89,0,0,1-10.64,5.07c-5.47,0-11-3.14-11-9.17m21.7-2.28V123.2a30.7,30.7,0,0,0-8.66-1.25c-5.52,0-8.6,2.39-8.6,6.09v.11c0,3.7,3.42,5.87,7.41,5.87,5.4,0,9.85-3.31,9.85-8"/></g><g id="g188"><path id="path190" class="cls-4" d="M1525.77,108.87a4.16,4.16,0,0,0-5.58-2.08,4.09,4.09,0,0,0-2,5.58l9.35,20.31c1.47,3.18,3,4.85,5.92,4.85,3.11,0,4.46-1.82,5.93-4.85l8.23-17.93a1.19,1.19,0,0,1,1.18-.76,1.29,1.29,0,0,1,1.29,1.32v17.35c0,2.68,1.48,4.87,4.34,4.87s4.39-2.19,4.39-4.87v-14.2a4.37,4.37,0,0,1,4.64-4.52,4.25,4.25,0,0,1,4.45,4.52v14.2c0,2.68,1.49,4.87,4.34,4.87s4.4-2.19,4.4-4.87v-14.2a4.37,4.37,0,0,1,4.63-4.52,4.26,4.26,0,0,1,4.46,4.52v14.2c0,2.68,1.49,4.87,4.34,4.87s4.4-2.19,4.4-4.87V116.5c0-5.94-4.78-10.1-10.52-10.1a13.5,13.5,0,0,0-9.34,4c-1.91-2.48-4.55-4-9-4-4.71,0-8.83,4-8.83,4a10.53,10.53,0,0,0-7.86-4c-4.17,0-7.48,1.84-9.5,6.45l-6,14.07Z"/></g><g id="g192"><path id="path194" class="cls-4" d="M1714.86,110.63v0a3.65,3.65,0,1,1,7.29,0v0a3.67,3.67,0,0,1-3.65,3.67,3.63,3.63,0,0,1-3.64-3.65m6.59,0h0a2.93,2.93,0,0,0-3-3,3,3,0,0,0-3,3v0a3,3,0,1,0,5.9,0"/></g><g id="g196"><path id="path198" class="cls-4" d="M1717.11,109.17a.38.38,0,0,1,.39-.39h1.22a1.4,1.4,0,0,1,1,.36,1.09,1.09,0,0,1,.31.8h0a1.1,1.1,0,0,1-.71,1.08l.54.65a.49.49,0,0,1,.12.3.36.36,0,0,1-.36.36.5.5,0,0,1-.39-.2l-.75-1h-.62V112a.39.39,0,0,1-.78,0v-2.78Zm1.56,1.32c.38,0,.59-.2.59-.5h0c0-.33-.22-.51-.6-.51h-.78v1Z"/></g></g></g></g><path class="cls-4" d="M2219.18,945.48v-.1c0-8.89,7-16.17,16.68-16.17s16.57,7.19,16.57,16.09v.08a16,16,0,0,1-2.77,9l1.52,1.34a3.34,3.34,0,0,1,1.25,2.59,3.22,3.22,0,0,1-5.5,2.32l-1.87-1.74a17,17,0,0,1-9.3,2.68c-9.65,0-16.58-7.19-16.58-16.08m16.27,3.53a3.25,3.25,0,0,1,3.22-3.27,3.21,3.21,0,0,1,2.28.94l3.44,3.09a10.94,10.94,0,0,0,.85-4.29v-.1a9.5,9.5,0,0,0-9.48-9.82c-5.54,0-9.37,4.37-9.37,9.74v.08c0,5.37,3.92,9.84,9.47,9.84a9.34,9.34,0,0,0,4.1-.85l-3.25-2.77a3.38,3.38,0,0,1-1.26-2.59"/><path class="cls-4" d="M2256.7,945.48v-.1A15.92,15.92,0,0,1,2273,929.19a16.54,16.54,0,0,1,10.46,3.18,3.45,3.45,0,0,1,1.34,2.73,3.36,3.36,0,0,1-3.4,3.35,3.57,3.57,0,0,1-2.06-.67,10.29,10.29,0,0,0-6.4-2.23c-5.28,0-9.08,4.38-9.08,9.75v.08c0,5.37,3.71,9.85,9.08,9.85a10.1,10.1,0,0,0,6.81-2.46,3.17,3.17,0,0,1,2.05-.77,3.18,3.18,0,0,1,2.06,5.64,16.5,16.5,0,0,1-27.2-12.16"/><path class="cls-4" d="M2299.08,935.67h-6.74a3.24,3.24,0,0,1,0-6.48h20.25a3.24,3.24,0,0,1,0,6.48h-6.49v22.38a3.51,3.51,0,1,1-7,0Z"/><path class="cls-4" d="M2308.73,923.58h-1.13a.29.29,0,0,1-.28-.28.3.3,0,0,1,.28-.29h2.84a.3.3,0,0,1,.29.29.29.29,0,0,1-.29.28h-1.11V927a.31.31,0,0,1-.32.3.28.28,0,0,1-.28-.3Zm2.87-.28a.28.28,0,0,1,.29-.3h.09a.31.31,0,0,1,.27.15l1.46,2.28,1.5-2.28a.3.3,0,0,1,.26-.15h.08a.29.29,0,0,1,.28.3V927a.29.29,0,0,1-.29.3.29.29,0,0,1-.29-.3v-2.82L2314,926a.3.3,0,0,1-.55,0l-1.25-1.89V927a.3.3,0,1,1-.59,0Z"/><rect class="cls-4" x="2189.34" y="929.21" width="8.53" height="8.53"/><path class="cls-4" d="M2200.88,937.74h-3v6h.75a5.88,5.88,0,0,1,6,5.85,6,6,0,0,1-6,6h-47a8.46,8.46,0,1,1,0-16.92h0l3.53.07-.37-3.41a11.35,11.35,0,0,1-.07-1.28,11.68,11.68,0,0,1,8-11.07h0c.29-.1.59-.18.88-.26h0c.27-.07.53-.12.8-.17l.31,0,.64-.08.85,0h.18a10.9,10.9,0,0,1,1.29.08h.12a11.82,11.82,0,0,1,3.8,1.16h0a11.67,11.67,0,0,1,5.44,5.63h12.24V924h-8.26a17.77,17.77,0,0,0-13.25-7.66h-.08c-.42,0-.85,0-1.28,0h-.08c-.49,0-1,0-1.47.07l-.35,0c-.41,0-.82.11-1.22.18l-.56.1h0a17.73,17.73,0,0,0-14,16.18,14.5,14.5,0,0,0,2.88,28.71h47a12.06,12.06,0,0,0,12-12,12.4,12.4,0,0,0-9.78-11.82"/><rect class="cls-4" x="2197.86" y="920.69" width="8.53" height="8.53"/><rect class="cls-4" x="2206.39" y="929.22" width="8.53" height="8.53"/><rect class="cls-4" x="2206.39" y="912.16" width="8.53" height="8.53"/><path class="cls-4" d="M2187.35,972.3v0a4,4,0,0,1,4.15-4.12,4.22,4.22,0,0,1,2.66.81.89.89,0,0,1,.34.69.85.85,0,0,1-.86.86,1,1,0,0,1-.53-.17,2.56,2.56,0,0,0-1.62-.57,2.35,2.35,0,0,0-2.31,2.48v0a2.36,2.36,0,0,0,2.31,2.5,2.54,2.54,0,0,0,1.73-.62.78.78,0,0,1,.52-.2.81.81,0,0,1,.52,1.44,4.19,4.19,0,0,1-6.91-3.1"/><path class="cls-4" d="M2196.08,969a.88.88,0,1,1,1.75,0v5.63h3.24a.8.8,0,1,1,0,1.59H2197a.86.86,0,0,1-.87-.87Z"/><path class="cls-4" d="M2209,972.3v0a2.42,2.42,0,0,0-2.42-2.5,2.37,2.37,0,0,0-2.38,2.48v0a2.41,2.41,0,0,0,2.41,2.5,2.38,2.38,0,0,0,2.39-2.48m-6.64,0v0a4.13,4.13,0,0,1,4.25-4.12,4.08,4.08,0,0,1,4.22,4.1v0a4.24,4.24,0,0,1-8.47,0"/><path class="cls-4" d="M2212.26,972.85V969a.88.88,0,1,1,1.75,0v3.76c0,1.3.65,2,1.72,2s1.72-.65,1.72-1.91V969a.88.88,0,1,1,1.75,0v3.75c0,2.41-1.35,3.6-3.49,3.6s-3.45-1.2-3.45-3.54"/><path class="cls-4" d="M2224.18,974.68a2.27,2.27,0,0,0,2.4-2.38v0a2.4,2.4,0,0,0-2.4-2.53h-1.35v4.93Zm-3.11-5.64a.87.87,0,0,1,.88-.88h2.23a4.08,4.08,0,0,1,4.23,4.1v0a4,4,0,0,1-4.23,4H2222a.87.87,0,0,1-.88-.87Z"/><path class="cls-4" d="M2235.46,969.78h-1.69a.81.81,0,0,1,0-1.62h5.12a.81.81,0,0,1,0,1.62h-1.68v5.68a.88.88,0,0,1-1.75,0Z"/><path class="cls-4" d="M2240.85,975.39V969a.87.87,0,0,1,.87-.88h4.42a.79.79,0,0,1,.78.79.77.77,0,0,1-.78.77h-3.55v1.75h3a.78.78,0,0,1,.78.79.77.77,0,0,1-.78.77h-3v1.67h3.61a.79.79,0,0,1,.78.79.77.77,0,0,1-.78.77h-4.48a.87.87,0,0,1-.87-.87"/><path class="cls-4" d="M2248,972.3v0a4.06,4.06,0,0,1,4.16-4.12,4.22,4.22,0,0,1,2.66.81.89.89,0,0,1,.34.69.85.85,0,0,1-.86.86,1,1,0,0,1-.53-.17,2.58,2.58,0,0,0-1.62-.57,2.35,2.35,0,0,0-2.31,2.48v0a2.36,2.36,0,0,0,2.31,2.5,2.54,2.54,0,0,0,1.73-.62.76.76,0,0,1,.52-.2.81.81,0,0,1,.52,1.44,4.2,4.2,0,0,1-6.92-3.1"/><path class="cls-4" d="M2256.69,969a.88.88,0,1,1,1.75,0v2.34h3.23V969a.88.88,0,1,1,1.75,0v6.42a.88.88,0,0,1-1.75,0v-2.4h-3.23v2.4a.88.88,0,0,1-1.75,0Z"/><path class="cls-4" d="M2265.4,969.06a.87.87,0,0,1,.88-.88h.18a1.1,1.1,0,0,1,.91.51l3.38,4.51V969a.87.87,0,0,1,1.73,0v6.41a.87.87,0,0,1-.87.88h-.06a1.09,1.09,0,0,1-.91-.52l-3.51-4.59v4.27a.87.87,0,0,1-1.73,0Z"/><path class="cls-4" d="M2280.67,972.3v0a2.41,2.41,0,0,0-2.41-2.5,2.38,2.38,0,0,0-2.39,2.48v0a2.41,2.41,0,0,0,2.41,2.5,2.38,2.38,0,0,0,2.39-2.48m-6.63,0v0a4.23,4.23,0,0,1,8.46,0v0a4.23,4.23,0,0,1-8.46,0"/><path class="cls-4" d="M2284.06,969a.88.88,0,1,1,1.75,0v5.63h3.25a.8.8,0,0,1,0,1.59h-4.12a.87.87,0,0,1-.88-.87V969Z"/><path class="cls-4" d="M2297,972.3v0a2.41,2.41,0,0,0-2.41-2.5,2.38,2.38,0,0,0-2.39,2.48v0a2.41,2.41,0,0,0,2.41,2.5,2.38,2.38,0,0,0,2.39-2.48m-6.63,0v0a4.23,4.23,0,0,1,8.46,0v0a4.23,4.23,0,0,1-8.46,0"/><path class="cls-4" d="M2300,972.3v0a4.09,4.09,0,0,1,4.17-4.12,4.39,4.39,0,0,1,2.73.78.86.86,0,1,1-1,1.38,2.8,2.8,0,0,0-1.74-.54,2.39,2.39,0,0,0-2.29,2.48v0a2.39,2.39,0,0,0,2.41,2.53,2.77,2.77,0,0,0,1.65-.48v-1.14h-1.18a.75.75,0,0,1-.76-.75.76.76,0,0,1,.76-.76h2a.87.87,0,0,1,.88.87v1.94a1.17,1.17,0,0,1-.62,1.11,5.24,5.24,0,0,1-2.78.8,4,4,0,0,1-4.19-4.1"/><path class="cls-4" d="M2311.15,973.13l-2.57-3.49a1.06,1.06,0,0,1-.22-.63.86.86,0,0,1,.88-.84,1,1,0,0,1,.87.54l1.93,2.79,2-2.81a1,1,0,0,1,.84-.53.81.81,0,0,1,.85.85,1.13,1.13,0,0,1-.22.62l-2.57,3.47v2.35a.88.88,0,1,1-1.76,0v-2.32Z"/><path class="cls-4" d="M2304.14,976.54a4.14,4.14,0,0,1-4.33-4.24,4.24,4.24,0,0,1,4.32-4.28,4.56,4.56,0,0,1,2.8.8,1,1,0,0,1-.58,1.83,1,1,0,0,1-.62-.21,2.63,2.63,0,0,0-1.66-.52,2.38,2.38,0,0,0,.12,4.74,2.68,2.68,0,0,0,1.51-.41v-.92h-1a.88.88,0,0,1-.9-.89.9.9,0,0,1,.9-.9h2a1,1,0,0,1,1,1v1.94a1.31,1.31,0,0,1-.68,1.23,5.33,5.33,0,0,1-2.86.82m0-8.24a4,4,0,0,0-4,4,3.84,3.84,0,0,0,4,4,5.07,5.07,0,0,0,2.71-.78,1,1,0,0,0,.55-1v-1.94a.73.73,0,0,0-.74-.73h-2a.62.62,0,0,0-.62.62.61.61,0,0,0,.62.61H2306v1.35l-.05,0a3,3,0,0,1-1.74.51,2.67,2.67,0,0,1-.12-5.32,2.91,2.91,0,0,1,1.82.58.74.74,0,0,0,.46.15.72.72,0,0,0,.72-.72.75.75,0,0,0-.31-.59,4.3,4.3,0,0,0-2.63-.75m-9.58,8.24a4.2,4.2,0,0,1-4.36-4.24,4.28,4.28,0,0,1,4.38-4.28,4.21,4.21,0,0,1,4.37,4.24,4.28,4.28,0,0,1-4.39,4.28m0-8.24a4,4,0,0,0-4.1,4,3.93,3.93,0,0,0,4.08,4,4,4,0,0,0,4.1-4,3.93,3.93,0,0,0-4.08-4m-16.31,8.24a4.21,4.21,0,0,1-4.37-4.24,4.28,4.28,0,0,1,4.39-4.28,4.2,4.2,0,0,1,4.36,4.24,4.28,4.28,0,0,1-4.38,4.28m0-8.24a4,4,0,0,0-4.1,4,3.93,3.93,0,0,0,4.08,4,4,4,0,0,0,4.1-4,3.93,3.93,0,0,0-4.08-4M2252,976.54a4.14,4.14,0,0,1-4.23-4.24,4.19,4.19,0,0,1,4.3-4.28,4.39,4.39,0,0,1,2.75.84,1,1,0,0,1-1.21,1.6,2.54,2.54,0,0,0-1.55-.54,2.37,2.37,0,0,0,0,4.72,2.44,2.44,0,0,0,1.64-.59.93.93,0,0,1,.61-.23,1,1,0,0,1,.62,1.68,4.16,4.16,0,0,1-2.93,1m.07-8.24a3.9,3.9,0,0,0-4,4,4,4,0,0,0,6.68,3,.67.67,0,0,0-.43-1.19.65.65,0,0,0-.43.17,2.7,2.7,0,0,1-1.82.66,2.66,2.66,0,0,1,0-5.3,2.74,2.74,0,0,1,1.71.6.74.74,0,0,0,.44.14.71.71,0,0,0,.72-.71.77.77,0,0,0-.28-.58,4.14,4.14,0,0,0-2.58-.78m-45.54,8.24a4.21,4.21,0,0,1-4.37-4.24,4.28,4.28,0,0,1,4.39-4.28,4.2,4.2,0,0,1,4.36,4.24,4.28,4.28,0,0,1-4.38,4.28m0-8.24a4,4,0,0,0-4.1,4,3.93,3.93,0,0,0,4.08,4,4,4,0,0,0,4.1-4,3.94,3.94,0,0,0-4.08-4m-15.16,8.24a4.14,4.14,0,0,1-4.23-4.24,4.19,4.19,0,0,1,4.3-4.28,4.41,4.41,0,0,1,2.75.84,1,1,0,0,1,.39.8,1,1,0,0,1-1,1,1.09,1.09,0,0,1-.6-.19,2.49,2.49,0,0,0-1.55-.55,2.37,2.37,0,0,0,0,4.72,2.44,2.44,0,0,0,1.64-.59.93.93,0,0,1,.61-.23,1,1,0,0,1,1,.95,1,1,0,0,1-.34.73,4.15,4.15,0,0,1-2.93,1m.07-8.24a3.9,3.9,0,0,0-4,4,4,4,0,0,0,6.68,3,.67.67,0,0,0-.43-1.19.65.65,0,0,0-.43.17,2.7,2.7,0,0,1-1.82.66,2.66,2.66,0,0,1,0-5.3,2.74,2.74,0,0,1,1.71.6.77.77,0,0,0,.44.14.71.71,0,0,0,.72-.71.77.77,0,0,0-.28-.58,4.14,4.14,0,0,0-2.58-.78m24.2,8.23c-2.28,0-3.58-1.34-3.58-3.68V969a1,1,0,1,1,2,0v3.76c0,1.18.56,1.83,1.58,1.83s1.57-.63,1.57-1.77V969a1,1,0,1,1,2,0v3.75c0,2.38-1.32,3.74-3.64,3.74m-2.57-8.22a.72.72,0,0,0-.73.73v3.81c0,2.19,1.17,3.4,3.31,3.4s3.35-1.23,3.35-3.46V969a.74.74,0,0,0-1.47,0v3.82c0,1.31-.68,2-1.86,2s-1.86-.77-1.86-2.11V969a.72.72,0,0,0-.74-.73m98.9,8.16a1,1,0,0,1-1-1v-2.28l-2.54-3.46a1.18,1.18,0,0,1-.25-.71,1,1,0,0,1,1-1,1.15,1.15,0,0,1,1,.6l1.82,2.62,1.85-2.65a1.14,1.14,0,0,1,1-.58,1,1,0,0,1,1,1,1.19,1.19,0,0,1-.26.7l-2.54,3.44v2.31a1,1,0,0,1-1,1m-2.79-8.15a.7.7,0,0,0-.73.69.9.9,0,0,0,.19.55l2.6,3.53v2.37a.73.73,0,0,0,1.46,0v-2.41l2.6-3.5a.91.91,0,0,0,.2-.54.67.67,0,0,0-.71-.71.86.86,0,0,0-.72.46l-2.09,3-2.05-3a.86.86,0,0,0-.75-.47m-43,8.15a1,1,0,0,1-1-1v-6.41a1,1,0,0,1,1-1h.18a1.24,1.24,0,0,1,1,.57l3.12,4.1V969a1,1,0,1,1,2,0v6.4a1,1,0,0,1-1,1h-.06a1.21,1.21,0,0,1-1-.57l-3.25-4.26v3.85a1,1,0,0,1-1,1m0-8.15a.73.73,0,0,0-.73.74v6.41a.72.72,0,1,0,1.44,0v-4.69l3.76,4.93a1,1,0,0,0,.8.46h.06a.73.73,0,0,0,.73-.74V969a.72.72,0,1,0-1.44,0v4.59l-3.64-4.84a1,1,0,0,0-.8-.46Zm-3.73,8.15a1,1,0,0,1-1-1v-2.25h-3v2.25a1,1,0,0,1-2,0V969a1,1,0,1,1,2,0v2.2h3V969a1,1,0,0,1,2,0v6.42a1,1,0,0,1-1,1m-4.25-3.55h3.52v2.54a.73.73,0,1,0,1.46,0V969a.73.73,0,1,0-1.46,0v2.49h-3.52V969a.74.74,0,0,0-1.47,0v6.42a.74.74,0,0,0,1.47,0Zm-22,3.55a1,1,0,0,1-1-1v-5.54h-1.54a1,1,0,1,1,0-1.9h5.12a.95.95,0,0,1,0,1.9h-1.54v5.54a1,1,0,0,1-1,1m-2.56-8.16a.65.65,0,0,0-.66.66.66.66,0,0,0,.66.67h1.83v5.82a.72.72,0,0,0,.73.73.73.73,0,0,0,.74-.73v-5.82h1.82a.67.67,0,0,0,.67-.67.66.66,0,0,0-.67-.66Zm55.29,8.09h-4.12a1,1,0,0,1-1-1V969a1,1,0,1,1,2,0v5.49h3.11a.94.94,0,0,1,0,1.87m-4.12-8.09a.73.73,0,0,0-.74.73v6.35a.73.73,0,0,0,.74.73h4.12a.66.66,0,0,0,0-1.31h-3.39V969a.72.72,0,0,0-.73-.73m-38.74,8.09h-4.48a1,1,0,0,1-1-1V969a1,1,0,0,1,1-1h4.42a.93.93,0,0,1,.93.93.92.92,0,0,1-.93.91h-3.41v1.47h2.9a.93.93,0,0,1,.93.93.92.92,0,0,1-.93.91h-2.9v1.39h3.47a.93.93,0,0,1,.92.93.92.92,0,0,1-.92.91m-4.48-8.09a.72.72,0,0,0-.73.73v6.35a.72.72,0,0,0,.73.73h4.48a.64.64,0,0,0,.64-.63.65.65,0,0,0-.64-.65h-3.75v-2h3.18a.64.64,0,0,0,.64-.63.65.65,0,0,0-.64-.65h-3.18v-2h3.69a.64.64,0,1,0,0-1.27Zm-17.54,8.09H2222a1,1,0,0,1-1-1V969a1,1,0,0,1,1-1h2.23a4.21,4.21,0,0,1,4.37,4.24,4.11,4.11,0,0,1-4.37,4.14m-2.23-8.09a.72.72,0,0,0-.73.73v6.35a.72.72,0,0,0,.73.73h2.23a3.84,3.84,0,0,0,4.09-3.84,3.93,3.93,0,0,0-4.09-4Zm-20.88,8.09H2197a1,1,0,0,1-1-1V969a1,1,0,1,1,2,0v5.49h3.1a.94.94,0,1,1,0,1.87m-4.12-8.09a.72.72,0,0,0-.73.73v6.35a.72.72,0,0,0,.73.73h4.12a.66.66,0,1,0,0-1.31h-3.38V969a.72.72,0,0,0-.74-.73m97.62,6.62a2.58,2.58,0,0,1-2.55-2.65,2.53,2.53,0,0,1,2.53-2.65,2.58,2.58,0,0,1,2.55,2.65,2.53,2.53,0,0,1-2.53,2.65m0-5a2.24,2.24,0,0,0-2.25,2.34,2.27,2.27,0,0,0,2.27,2.38,2.24,2.24,0,0,0,2.25-2.34,2.27,2.27,0,0,0-2.27-2.38m-16.27,5a2.58,2.58,0,0,1-2.55-2.65,2.53,2.53,0,0,1,2.53-2.65,2.58,2.58,0,0,1,2.55,2.65,2.53,2.53,0,0,1-2.53,2.65m0-5a2.24,2.24,0,0,0-2.25,2.34,2.27,2.27,0,0,0,2.27,2.38,2.24,2.24,0,0,0,2.25-2.34,2.27,2.27,0,0,0-2.27-2.38m-71.67,5a2.59,2.59,0,0,1-2.56-2.65,2.53,2.53,0,0,1,2.54-2.65,2.58,2.58,0,0,1,2.55,2.65,2.53,2.53,0,0,1-2.53,2.65m0-5a2.24,2.24,0,0,0-2.25,2.34,2.26,2.26,0,1,0,2.25-2.34m17.61,4.9h-1.5V969.6h1.5a2.54,2.54,0,0,1,2.54,2.68,2.42,2.42,0,0,1-2.54,2.54m-1.21-.28h1.21a2.13,2.13,0,0,0,2.26-2.24,2.25,2.25,0,0,0-2.26-2.41H2223Z"/><path class="cls-4" d="M2151.2,976.36l.08-.51a2.89,2.89,0,0,1-1.88.66c-1.93,0-2.56-1.32-2.18-3.45l.74-4.26h2l-.72,4.09c-.24,1.35.15,1.75,1,1.75s1.36-.4,1.59-1.71l.73-4.13h2l-1.33,7.56Z"/><path class="cls-4" d="M2159.28,973.19a2,2,0,0,0-1.33-.32,1.17,1.17,0,0,0-1.31,1c-.09.54.13,1,1,1a2,2,0,0,0,1.5-.69Zm-.55,3.17.08-.51a2.81,2.81,0,0,1-1.81.66,2.16,2.16,0,0,1-2.34-2.69c.29-1.67,1.79-2.5,3.5-2.5a2.72,2.72,0,0,1,1.39.3l.08-.37c.09-.53-.2-1-.92-1a4.08,4.08,0,0,0-2.15.51l-.53-1.38a5.73,5.73,0,0,1,3-.76c1.83,0,2.89.94,2.6,2.64l-.89,5.07Z"/><path class="cls-4" d="M2166.55,976.36l.72-4.09c.23-1.35-.16-1.76-1-1.76s-1.36.41-1.6,1.72l-.72,4.13h-2l1.32-7.56h2l-.09.51a2.91,2.91,0,0,1,1.88-.66c1.93,0,2.56,1.32,2.19,3.45l-.75,4.26Z"/><path class="cls-4" d="M2174.31,976.05a3.08,3.08,0,0,1-1.63.46c-1.22,0-1.84-1-1.61-2.27l.62-3.57h-1.26l.33-1.87H2172l.34-1.94,2.16-1-.52,2.93h1.82l-.33,1.87h-1.81l-.53,3c-.13.72.1.9.57.9A2.07,2.07,0,0,0,2175,974Z"/><path class="cls-4" d="M2180.56,973.19a2,2,0,0,0-1.32-.32,1.18,1.18,0,0,0-1.32,1c-.09.54.13,1,1,1a2,2,0,0,0,1.5-.69Zm-.55,3.17.09-.51a2.84,2.84,0,0,1-1.82.66,2.17,2.17,0,0,1-2.35-2.69c.3-1.67,1.8-2.5,3.51-2.5a2.79,2.79,0,0,1,1.4.3l.07-.37c.09-.53-.2-1-.91-1a4.09,4.09,0,0,0-2.16.51l-.52-1.38a5.67,5.67,0,0,1,3-.76c1.83,0,2.9.94,2.6,2.64l-.88,5.07Z"/><path class="cls-4" d="M2141.63,975.05a2.59,2.59,0,0,1-2.31-2.74,2.33,2.33,0,1,1,4.62.11,2.44,2.44,0,0,1-2.31,2.63m2.68.93a4,4,0,0,0,1.84-3.82,4.31,4.31,0,0,0-1.18-2.94,4.56,4.56,0,0,0-3.27-1.22,4.27,4.27,0,0,0-4.56,4.25,4.73,4.73,0,0,0,1,3.08c.93,1,2.24,1.42,4.18,1.42.2,0,2.77,1,2.77,1l1.26-.33c-.43-.29-2.08-1.47-2.08-1.47"/><path class="cls-4" d="M2183.74,968.35a.67.67,0,1,1,0-1.34.67.67,0,1,1,0,1.34m0-1.48a.81.81,0,0,0,0,1.62.81.81,0,1,0,0-1.62"/><path class="cls-4" d="M2183.91,968.12l-.16-.35h-.15v.35h-.22v-.93h.42a.29.29,0,0,1,.31.29.26.26,0,0,1-.15.27l.18.37Zm-.14-.75h-.17v.23h.17a.12.12,0,0,0,.13-.11.12.12,0,0,0-.13-.12"/><path class="cls-4" d="M2593.85,934.48c-3.22-22.1-40.46-35.32-83.19-29.53s-74.76,28.41-71.54,50.51,40.46,35.32,83.18,29.53,74.76-28.41,71.55-50.51m-67.23,43.71c-39.15,3.92-72.59-8.86-74.69-28.53s28-38.8,67.1-42.72,72.59,8.86,74.69,28.53-27.95,38.8-67.1,42.72"/><path class="cls-4" d="M2467.61,940.92h-.51c-.2-3-2.11-5.5-5.2-5.5a3.17,3.17,0,0,0-3.24,3c0,4,10.19,4.72,10.19,10.4a5.54,5.54,0,0,1-5.88,5.53,7.71,7.71,0,0,1-3-.55,6.18,6.18,0,0,0-2-.52c-.64,0-.79.49-.84,1.07h-.51v-6.57h.51c.42,4.63,3.85,5.44,5.51,5.44,1.89,0,3.72-1,3.72-3.13,0-4.4-9.91-4.92-9.91-10.66a5.33,5.33,0,0,1,5.52-5.12,6.31,6.31,0,0,1,2.53.55,6.85,6.85,0,0,0,1.6.55c.68,0,.85-.52,1-1.1h.51Z"/><path class="cls-4" d="M2463,954.86a8.21,8.21,0,0,1-3.15-.59l-.39-.14a4.33,4.33,0,0,0-1.42-.35c-.16,0-.26,0-.32.6l0,.48h-1.51v-7.63h1.51l0,.48c.42,4.61,3.93,5,5,5,1.59,0,3.19-.8,3.19-2.6s-2-2.89-4.19-4.09c-2.68-1.5-5.71-3.2-5.71-6.57a5.87,5.87,0,0,1,6-5.65,6.85,6.85,0,0,1,2.74.6l.6.23a3,3,0,0,0,.79.27c.19,0,.31,0,.45-.67l.08-.43h1.46v7.69h-1.52l0-.5c-.17-2.49-1.67-5-4.68-5a2.66,2.66,0,0,0-2.71,2.46c0,1.53,2,2.61,4.16,3.77,2.82,1.51,6,3.23,6,6.63a6.1,6.1,0,0,1-6.4,6.06m-5-2.13a5.09,5.09,0,0,1,1.77.41l.4.14a7.25,7.25,0,0,0,2.79.52,5,5,0,0,0,5.35-5c0-2.77-2.78-4.26-5.47-5.71-2.43-1.3-4.72-2.53-4.72-4.69a3.7,3.7,0,0,1,3.77-3.51,5.45,5.45,0,0,1,5.18,3.55v-2.87a1.3,1.3,0,0,1-.94.34,3.34,3.34,0,0,1-1.2-.35l-.58-.23a6,6,0,0,0-2.35-.52,4.82,4.82,0,0,0-5,4.6c0,2.75,2.63,4.23,5.17,5.65s4.73,2.65,4.73,5-2.2,3.65-4.24,3.65a5.83,5.83,0,0,1-5.49-3.57V953a1.29,1.29,0,0,1,.82-.26"/><path class="cls-4" d="M2472.08,941.45c0-2,0-2.52-2.12-2.52v-.42h6.35v.42c-2.12,0-2.12.57-2.12,2.52v6.12a14.07,14.07,0,0,0,.36,3.4,3.5,3.5,0,0,0,3.49,2.22,4.68,4.68,0,0,0,3.94-1.87c.72-1.11.72-2.92.72-4.17v-5.7c0-2,0-2.52-2.12-2.52v-.42h5.2v.42c-2.11,0-2.11.57-2.11,2.52v6.84c0,2.78-1.06,5.9-5.74,5.9s-5.85-2.8-5.85-5.84Z"/><path class="cls-4" d="M2477.93,954.72c-4.23,0-6.38-2.14-6.38-6.37v-6.9a4.08,4.08,0,0,0-.17-1.7c-.1-.14-.35-.3-1.42-.3h-.53V938h7.4v1.47h-.52c-1.08,0-1.32.16-1.42.3a4.08,4.08,0,0,0-.17,1.7v6.12a14.07,14.07,0,0,0,.33,3.24,3,3,0,0,0,3,1.86,4.21,4.21,0,0,0,3.5-1.64c.63-1,.63-2.72.63-3.88v-5.7a4.08,4.08,0,0,0-.17-1.7c-.09-.14-.34-.3-1.42-.3h-.52V938h6.25v1.47h-.53c-1.07,0-1.32.16-1.41.3a3.87,3.87,0,0,0-.18,1.7v6.84c0,4.14-2.22,6.43-6.26,6.43M2472.14,939a3.78,3.78,0,0,1,.46,2.42v6.9c0,3.38,1.39,5,4.48,5.28a3.8,3.8,0,0,1-3-2.49,14.92,14.92,0,0,1-.38-3.57v-6.12a3.78,3.78,0,0,1,.46-2.42Zm9.74,13.23a4.78,4.78,0,0,1-1.79,1.1,4,4,0,0,0,1.79-1.1m.88-13.23a2.09,2.09,0,0,1,.42,1.21,2.16,2.16,0,0,1,.43-1.21Z"/><path class="cls-4" d="M2490.67,939.64a6,6,0,0,1,1.53-.2c1.94,0,3.08,1.57,3.08,3.47,0,1.67-1,3.31-2.47,3.31a10.71,10.71,0,0,1-2.14-.23Zm0,7a11.24,11.24,0,0,0,2.5.35c4,0,4.63-3,4.63-4.22,0-2.27-1.77-4.28-5.29-4.28h-6.07v.42c2.11,0,2.11.58,2.11,2.52v9.45c0,2,0,2.53-2.11,2.53v.41h6.35v-.41c-2.12,0-2.12-.58-2.12-2.53Z"/><path class="cls-4" d="M2493.31,954.37h-7.4V952.9h.53c1.07,0,1.32-.16,1.41-.3a3.87,3.87,0,0,0,.18-1.7v-9.45a3.79,3.79,0,0,0-.18-1.69c-.09-.15-.34-.31-1.41-.31h-.53V938h6.6c4,0,5.82,2.42,5.82,4.81,0,1.77-1.09,4.75-5.16,4.75a9.93,9.93,0,0,1-2-.23v3.59a3.87,3.87,0,0,0,.18,1.7c.09.14.34.3,1.41.3h.53Zm-4.69-1h2a3.76,3.76,0,0,1-.47-2.42V939.25l.39-.11.42-.11h-2.33a3.8,3.8,0,0,1,.46,2.42v9.45a3.77,3.77,0,0,1-.46,2.42m4.65-14.25a3.81,3.81,0,0,1,2.54,3.84,4.1,4.1,0,0,1-1.79,3.52,3.6,3.6,0,0,0,3.26-3.64c0-1.6-1.07-3.45-4-3.72m-2.08,6.49a11.57,11.57,0,0,0,1.62.14c1.16,0,2-1.44,2-2.79S2494,940,2492.2,940a4.87,4.87,0,0,0-1,.1Z"/><path class="cls-4" d="M2503.18,945.41h3c1.78,0,2.48-.18,2.61-2.25h.4v5.36h-.4c-.18-2-.79-2.27-2.61-2.27h-3v5.6c0,.95.27,1.16,1.22,1.16h3.06c2,0,2.7-1,3.87-3h.43l-1.26,3.84H2499v-.41c2.12,0,2.12-.58,2.12-2.53v-9.45c0-2,0-2.52-2.12-2.52v-.42h11.44l.2,3.36h-.45c-.43-2.34-1-2.53-3.15-2.53h-3.81Z"/><path class="cls-4" d="M2510.88,954.37h-12.45V952.9h.52c1.07,0,1.32-.16,1.42-.3a4.08,4.08,0,0,0,.17-1.7v-9.45a4.08,4.08,0,0,0-.17-1.7c-.1-.14-.34-.3-1.42-.3h-.52V938h12.45l.27,4.41h-1.45l-.08-.43c-.37-2-.7-2.09-2.63-2.09h-3.28v5h2.47c1.59,0,2-.07,2.08-1.76l0-.49h1.42V949h-1.41l0-.48c-.15-1.67-.43-1.79-2.09-1.79h-2.47v5.08c0,.62,0,.64.69.64h3.06c1.7,0,2.29-.76,3.42-2.75l.15-.27h1.46Zm-2-1h1.2l.35-1.07a3.56,3.56,0,0,1-1.55,1.07m-7.79,0h2.16c-.4-.23-.63-.66-.63-1.47V939h-1.53a3.78,3.78,0,0,1,.46,2.42v9.45a3.77,3.77,0,0,1-.46,2.42m6.45-7.49a2,2,0,0,1,1.09.6v-1.19a1.84,1.84,0,0,1-1.09.59M2509,939a2,2,0,0,1,.94.69l-.05-.69Z"/><path class="cls-4" d="M2516.94,939.55a12.49,12.49,0,0,1,1.84-.21,3,3,0,0,1,3,3.25c0,2.57-2.25,3.35-4.39,3.35h-.49Zm10.58,14.3v-.42c-2.05-.16-2.86-1.3-4-2.87l-2.91-4.17c2-.42,3.69-1.67,3.69-3.9,0-1.34-.78-4-5.17-4h-6.46v.42c2.11,0,2.11.57,2.11,2.52v9.45c0,2,0,2.53-2.11,2.53v.42h6.34v-.42c-2.11,0-2.11-.58-2.11-2.53v-4.21h1.53l5.06,7.16Z"/><path class="cls-4" d="M2528,954.37h-4.78l-5.06-7.16h-.74v3.69a3.84,3.84,0,0,0,.18,1.7c.09.14.34.3,1.42.3h.52v1.47h-7.4V952.9h.53c1.07,0,1.32-.16,1.41-.3a3.84,3.84,0,0,0,.18-1.7v-9.45a3.87,3.87,0,0,0-.18-1.7c-.09-.14-.34-.3-1.41-.3h-.53V938h7c4.21,0,5.7,2.43,5.7,4.51a4.38,4.38,0,0,1-3.36,4.21l2.48,3.55c1.05,1.51,1.75,2.51,3.57,2.65l.48,0Zm-4.23-1h1.59a8.32,8.32,0,0,1-2.28-2.46l-3.31-4.76a5.16,5.16,0,0,1-.94.25Zm-8.93,0h2a3.7,3.7,0,0,1-.47-2.42V939.1l.43-.07h-2a3.79,3.79,0,0,1,.47,2.42v9.45a3.76,3.76,0,0,1-.47,2.42m5.31-14.23a3.65,3.65,0,0,1,2.16,3.5,3.5,3.5,0,0,1-2.13,3.35l.32-.07c1-.21,3.28-1,3.28-3.38,0-.74-.28-3-3.63-3.4m-2.73.91v5.42c1.45,0,3.84-.39,3.84-2.83a2.51,2.51,0,0,0-2.52-2.72,8.55,8.55,0,0,0-1.32.13"/><path class="cls-4" d="M2530.83,941h0v9.89c0,2,0,2.53,2.12,2.53v.41h-5.2v-.41c2.11,0,2.11-.58,2.11-2.53v-9.47c0-1.86-.22-2.5-2.11-2.5v-.42h4.23l5.4,12,5.34-12h4.21v.42c-2.12,0-2.12.57-2.12,2.52v9.45c0,2,0,2.53,2.12,2.53v.41h-6.35v-.41c2.11,0,2.11-.58,2.11-2.53V941h0l-5.7,12.83h-.36Z"/><path class="cls-4" d="M2547.4,954.37H2540V952.9h.53c1.07,0,1.32-.16,1.42-.3a4.05,4.05,0,0,0,.17-1.7v-7.51l-4.87,11h-1.05l-4.89-11v7.52a4.05,4.05,0,0,0,.17,1.7c.1.14.35.3,1.42.3h.52v1.47h-6.25V952.9h.53c1.07,0,1.32-.16,1.41-.3a3.84,3.84,0,0,0,.18-1.7v-9.47c0-1.77-.16-2-1.59-2h-.53V938h5.1l5.06,11.24,5-11.24h5.07v1.47h-.52c-1.08,0-1.32.16-1.42.3a4.08,4.08,0,0,0-.17,1.7v9.45a4.05,4.05,0,0,0,.17,1.7c.1.14.34.3,1.42.3h.52Zm-4.69-1h2a3.77,3.77,0,0,1-.46-2.42v-9.45a3.75,3.75,0,0,1,.46-2.41H2543l-.65,1.45h.81V950.9a3.77,3.77,0,0,1-.46,2.42m-12.83,0h.84a.67.67,0,1,0-.84,0m.43-12.83h.86l5.55,12.47.57-1.27-5.7-12.65h-1.82a2.34,2.34,0,0,1,.54,1.45"/><path class="cls-4" d="M2552.1,950.9c0,2,0,2.53,2.12,2.53v.42h-6.35v-.42c2.11,0,2.11-.58,2.11-2.53v-9.45c0-2,0-2.52-2.11-2.52v-.42h6.35v.42c-2.12,0-2.12.57-2.12,2.52Z"/><path class="cls-4" d="M2554.74,954.37h-7.4V952.9h.53c1.07,0,1.32-.16,1.41-.3a3.84,3.84,0,0,0,.18-1.7v-9.45a3.79,3.79,0,0,0-.18-1.69c-.09-.15-.34-.31-1.41-.31h-.53V938h7.4v1.47h-.52c-1.08,0-1.33.16-1.42.31a3.79,3.79,0,0,0-.18,1.69v9.45a3.84,3.84,0,0,0,.18,1.7c.09.14.34.3,1.42.3h.52Zm-4.69-1h2a3.7,3.7,0,0,1-.47-2.42v-9.45A3.73,3.73,0,0,1,2552,939h-2a3.8,3.8,0,0,1,.46,2.42v9.45a3.77,3.77,0,0,1-.46,2.42"/><path class="cls-4" d="M2568.69,943.37h-.34c-.7-2.61-2.2-4.4-5-4.4-3,0-5.2,2.39-5.2,7.48s3,6.75,5.56,6.75c2.39,0,3.63-1.16,5-3.18l.33.23c-1.37,2.6-3.21,3.94-6.16,3.94-4.3,0-7.23-3.38-7.23-7.71,0-4.54,3.06-8.3,7.63-8.3a6.74,6.74,0,0,1,3.18.81,1.51,1.51,0,0,0,.65.24c.5,0,.79-.58.88-1.07h.38Z"/><path class="cls-4" d="M2562.86,954.72c-4.49,0-7.75-3.47-7.75-8.24,0-5,3.5-8.82,8.15-8.82a7.22,7.22,0,0,1,3.41.86l0,0a1.37,1.37,0,0,0,.37.15c.11,0,.3-.28.36-.63l.08-.43h1.31l.41,6.26H2568l-.11-.39c-.72-2.7-2.19-4-4.49-4-3,0-4.67,2.53-4.67,7,0,5.77,3.85,6.22,5,6.22,2.16,0,3.26-1,4.54-2.94l.3-.44,1.16.8-.22.41c-1.52,2.88-3.63,4.22-6.63,4.22m-2.38-15.46a7.53,7.53,0,0,0-4.32,7.22c0,4.16,2.81,7.18,6.69,7.19-2.66-.35-5.22-2.38-5.22-7.22,0-3.47,1-6,2.85-7.19m6.43.48a6,6,0,0,1,1.11,1.39l-.11-1.71a1.19,1.19,0,0,1-.82.33h-.18"/><path class="cls-4" d="M2574.47,939.55a12.62,12.62,0,0,1,1.85-.21,3,3,0,0,1,3,3.25c0,2.57-2.25,3.35-4.39,3.35h-.5Zm10.58,14.3v-.42c-2.05-.16-2.86-1.3-4-2.87l-2.9-4.17c2-.42,3.69-1.67,3.69-3.9,0-1.34-.79-4-5.18-4h-6.46v.42c2.12,0,2.12.57,2.12,2.52v9.45c0,2,0,2.53-2.12,2.53v.42h6.35v-.42c-2.12,0-2.12-.58-2.12-2.53v-4.21H2576l5.07,7.16Z"/><path class="cls-4" d="M2585.58,954.37h-4.78l-5.07-7.16H2575v3.69a4.05,4.05,0,0,0,.17,1.7c.1.14.35.3,1.42.3h.52v1.47h-7.39V952.9h.52c1.07,0,1.32-.16,1.42-.3a4.05,4.05,0,0,0,.17-1.7v-9.45a4.08,4.08,0,0,0-.17-1.7c-.1-.14-.35-.3-1.42-.3h-.52V938h7c5.43,0,5.7,3.76,5.7,4.51a4.38,4.38,0,0,1-3.35,4.21l2.47,3.55c1.06,1.51,1.76,2.51,3.57,2.65l.49,0Zm-4.24-1h1.59a8.16,8.16,0,0,1-2.27-2.46l-3.31-4.76a5.39,5.39,0,0,1-.94.25l0,0Zm-8.92,0h2a3.77,3.77,0,0,1-.46-2.42V939.1l.43-.07h-2a3.8,3.8,0,0,1,.46,2.42v9.45a3.77,3.77,0,0,1-.46,2.42m5.31-14.23a3.64,3.64,0,0,1,2.15,3.5,3.47,3.47,0,0,1-2.13,3.35l.33-.07c1-.21,3.27-1,3.27-3.38,0-.74-.28-3-3.62-3.4M2575,940v5.42c1.45,0,3.83-.39,3.83-2.83a2.51,2.51,0,0,0-2.51-2.72,8.55,8.55,0,0,0-1.32.13"/><path class="cls-4" d="M2600.35,946.1a7.59,7.59,0,1,1-7.59-7.81,7.71,7.71,0,0,1,7.59,7.81"/><path class="cls-4" d="M2596.74,916.52a4.09,4.09,0,1,1-4.08-4,4,4,0,0,1,4.08,4m-7.16,0a3.08,3.08,0,0,0,3.11,3.17,3,3,0,0,0,3-3.15,3.07,3.07,0,1,0-6.14,0m2.45,2.08h-.92v-4a8.26,8.26,0,0,1,1.53-.12,2.47,2.47,0,0,1,1.38.29,1.11,1.11,0,0,1,.39.88,1,1,0,0,1-.83.92v0a1.15,1.15,0,0,1,.73,1,2.91,2.91,0,0,0,.29,1h-1a3.32,3.32,0,0,1-.32-1c-.07-.43-.31-.63-.82-.63H2592Zm0-2.25h.44c.51,0,.92-.17.92-.59s-.26-.6-.85-.6a1.94,1.94,0,0,0-.51.05Z"/><polygon class="cls-4" points="1658.57 163.05 1666.82 163.05 1666.82 159.78 1658.57 159.78 1658.57 154.08 1667.29 154.08 1667.29 150.78 1654.83 150.78 1654.83 173 1667.77 173 1667.77 169.71 1658.57 169.71 1658.57 163.05"/><path class="cls-4" d="M1678.63,160c-3-1.15-3.9-2-3.9-3.63,0-1.24.92-2.68,3.5-2.68a7.81,7.81,0,0,1,3.79,1l.52.28,1.08-3.19-.36-.2a9.91,9.91,0,0,0-4.94-1.11c-4.34,0-7.36,2.58-7.36,6.26,0,3,1.88,5.05,5.92,6.49,2.72,1,3.68,2,3.68,3.75,0,1.93-1.51,3.12-3.94,3.12a9.27,9.27,0,0,1-4.65-1.31l-.55-.34-1,3.28.31.2a11.36,11.36,0,0,0,5.69,1.44c5.86,0,7.93-3.56,7.93-6.61S1682.65,161.56,1678.63,160Z"/><path class="cls-4" d="M1704.42,150.78h-4.34l-3,5.22c-.59,1-1.06,1.86-1.54,2.82-.48-.91-1-1.83-1.56-2.81l-3-5.23h-4.35l6.53,11L1686.38,173h4.33l2.69-4.91c.89-1.5,1.44-2.52,1.92-3.46.58,1,1.21,2.09,2,3.42l2.85,4.95h4.36l-6.92-11.4Z"/><rect class="cls-4" x="1707.53" y="156.76" width="3.77" height="16.24"/><path class="cls-4" d="M1709.35,155.18a2.29,2.29,0,0,0,1.68-.67,2,2,0,0,0,.58-1.54,2.13,2.13,0,0,0-2.2-2.22,2.18,2.18,0,0,0-2.23,2.23A2.14,2.14,0,0,0,1709.35,155.18Z"/><path class="cls-4" d="M891.82,102.32a2.71,2.71,0,0,0-.09.87c0,4.09,16.18,17.59,37.87,17.59,3.84,0,8.83-.54,11.59-3a6.12,6.12,0,0,0,2-4.71,9,9,0,0,0-.14-1.55l-3.32-14.41c-.77-3.18-1.45-4.59-7-7.41-4.32-2.22-13.73-5.86-16.54-5.86-2.59,0-3.37,3.36-6.46,3.36s-5.18-2.5-8-2.5-4.41,1.82-5.78,5.6c0,0-3.72,10.59-4.22,12.09a.53.53,0,0,0,0,.12Z"/><path class="cls-4" d="M944.05,115.73a22.42,22.42,0,0,1,.77,4.5c0,6.23-7,9.68-16.22,9.68-20.87,0-39.1-12.18-39.1-20.27a8.15,8.15,0,0,1,.68-3.27c-7.5.36-17.18,1.72-17.18,10.27,0,14,33.23,31.32,59.6,31.32,20.18,0,25.27-9.14,25.27-16.32C957.83,126,952.92,119.55,944.05,115.73Z"/><path class="cls-4" d="M1131.2,125c0,5.32,3.18,7.86,9,7.86a26.27,26.27,0,0,0,5.32-.72V126a9.67,9.67,0,0,1-3.41.5c-2.41,0-3.27-.73-3.27-3v-9.41h7v-6.32h-7v-8l-7.59,1.63v6.37h-5V114h5v11Z"/><polygon class="cls-4" points="1068.65 132.51 1076.7 132.51 1076.7 119.64 1090.2 119.64 1090.2 132.51 1098.29 132.51 1098.29 99.69 1090.24 99.69 1090.24 112.28 1076.74 112.28 1076.74 99.69 1068.7 99.69 1068.65 132.51"/><path class="cls-4" d="M1113.38,107.23a27.74,27.74,0,0,0-11.59,2.73l2.73,5.59a20.07,20.07,0,0,1,7.5-2c3.13,0,4.72,1.22,4.72,3.68v1.22a21.6,21.6,0,0,0-5.63-.68c-6.37,0-10.23,2.68-10.23,7.46,0,4.36,3.45,7.68,9,7.63a11.67,11.67,0,0,0,6.86-1.9v1.5h7.51V116.6C1124.25,110.55,1120.15,107.23,1113.38,107.23Zm2.82,19.14a10.17,10.17,0,0,1-4.73,1.18c-2.45,0-3.91-.91-3.91-2.45s1.64-2.46,4.14-2.46a18.48,18.48,0,0,1,4.5.55Z"/><path class="cls-4" d="M1049.74,99.73v9.32a12.32,12.32,0,0,0-6.32-1.64,12.71,12.71,0,0,0-.45,25.41h.22a11.12,11.12,0,0,0,6.64-2.13v1.86h7.5V98.09Zm0,24.68a7.4,7.4,0,0,1-5.22,2,6.3,6.3,0,1,1,0-12.59,7.59,7.59,0,0,1,5.22,1.91Z"/><path class="cls-4" d="M1028.1,120.82c0-7.86-5.32-13.54-12.5-13.54a12.71,12.71,0,0,0-12.91,12.54.44.44,0,0,0-.09.32c0,7.23,5.91,12.87,13.5,12.87a14.85,14.85,0,0,0,10.37-3.78l-5-4.45a6.69,6.69,0,0,1-5,1.86,6.38,6.38,0,0,1-6.09-4h17.68Zm-17.91-3.41a5.27,5.27,0,0,1,5.18-4,5.42,5.42,0,0,1,5.19,4Z"/><path class="cls-4" d="M995.69,119.37a9.94,9.94,0,0,0,6.18-9.23c0-5.91-4.63-10.45-11.59-10.45H973.46v32.82h8.09v-12h6.14l6.18,12h9ZM989.55,114H981.6v-7.37h7.95c2.69,0,4.19,1.69,4.19,3.69S992.24,114,989.55,114Z"/><path class="cls-4" d="M1295.94,945.69v-1.37l-1.2,1.29v-3.06h-.91v3.05l-1.18-1.28v1.37l1.64,1.78Zm-9.67,21.9,1-1-1.76.06,2.16-2.15-.64-.65-2.15,2.15.06-1.75-1,1-.09,2.42Zm-22.33,8.65h1.38L1264,975h3.06v-.91h-3l1.28-1.18h-1.38l-1.77,1.65Zm-21.9-9.67,1,1-.06-1.76,2.16,2.16.64-.64-2.14-2.15,1.74.06-1-1-2.43-.09Zm-8.65-22.32v1.37l1.21-1.3v3.06h.91v-3l1.18,1.27v-1.37l-1.65-1.78Zm9.68-21.91-1,1,1.77-.06-2.17,2.16.65.65,2.15-2.15-.07,1.75,1-1,.09-2.43Zm22.32-8.65H1264l1.29,1.21h-3.06v.91h3L1264,917h1.37l1.78-1.64Zm21.9,9.68-1-1,.06,1.77-2.16-2.17-.64.65,2.15,2.15-1.75-.06,1,1,2.42.09Zm7.77,14.2-.35-1.32-.83,1.56-.79-3-.88.24L1293,938l-1.48-.93.35,1.32,2.06,1.3Zm-3.67,23.66.68-1.19-1.68.52,1.53-2.64-.79-.46-1.52,2.63-.39-1.7-.69,1.19.54,2.37Zm-19.32,14.13,1.32-.35-1.56-.83,3-.79-.24-.87-2.94.78.93-1.48-1.33.35-1.29,2.06Zm-23.67-3.67,1.2.68-.52-1.68,2.64,1.53.45-.79-2.63-1.52,1.71-.39-1.2-.69-2.36.54Zm-14.13-19.33.35,1.33.83-1.56.79,3,.88-.23-.78-2.94,1.47.93-.35-1.33-2.06-1.29Zm3.67-23.65-.68,1.19,1.69-.52-1.53,2.65.78.44,1.52-2.62.4,1.7.68-1.2-.54-2.36Zm19.33-14.13-1.33.35,1.56.82-3,.8.24.87,2.93-.78-.92,1.48,1.33-.36,1.28-2Zm23.66,3.66-1.19-.68.52,1.69-2.65-1.53-.45.78,2.63,1.53-1.7.39,1.19.69,2.36-.55ZM1292.11,930l-.69-1.18-.39,1.72-1.53-2.65-.78.45,1.52,2.64-1.67-.51.68,1.19,2.32.72Zm2.58,23.82.36-1.34-1.5.94.79-3-.88-.23-.78,2.93-.83-1.54-.35,1.33,1.14,2.14,2-1.28Zm-15,18.64,1.19-.69-1.73-.38,2.66-1.54-.46-.78-2.63,1.52.51-1.67-1.19.69-.72,2.31ZM1255.87,975l1.33.35-.94-1.5,3,.79.24-.87-2.93-.8,1.54-.81-1.33-.36-2.15,1.14Zm-18.65-15,.69,1.19.39-1.72,1.53,2.65.79-.46-1.53-2.63,1.68.51-.69-1.19-2.32-.71Zm-2.57-23.8-.36,1.33,1.5-1-.79,3,.87.23.79-2.93.82,1.54.35-1.33-1.13-2.14Zm15-18.65-1.18.69,1.72.39-2.65,1.52.45.79,2.64-1.52-.52,1.68,1.2-.69.71-2.32Zm57.74,30h2.08l-2-1.82h4.64v-1.37h-4.61l1.94-1.81h-2.08l-2.7,2.5ZM1293.08,977l1.47,1.47-.1-2.68,3.28,3.28,1-1-3.26-3.26,2.65.1-1.48-1.48-3.68-.13Zm-30.95,10.71v2.09l1.82-2v4.64h1.37v-4.61l1.81,1.94v-2.09l-2.51-2.69Zm-29.46-14.3-1.48,1.47,2.68-.1-3.28,3.28,1,1,3.26-3.26-.09,2.64,1.47-1.46.14-3.69Zm-10.72-31h-2.09l2,1.82h-4.64v1.37h4.61l-1.94,1.81H1222l2.69-2.51ZM1236.26,913l-1.47-1.48.09,2.68-3.27-3.28-1,1,3.26,3.26-2.65-.09,1.47,1.47,3.68.14Zm31-10.72v-2.08l-1.82,2v-4.64H1264v4.62l-1.8-1.94v2.08l2.5,2.69Zm29.46,14.31,1.47-1.48-2.67.1,3.27-3.27-1-1-3.26,3.26.09-2.65-1.47,1.47-.13,3.68,3.67-.14Zm9.92,19.8,2-.53-2.36-1.25,4.47-1.21-.36-1.32-4.45,1.19,1.4-2.24-2,.54-2,3.11Zm-6.2,32.17,1.81,1-.79-2.56,4,2.32.68-1.19-4-2.31,2.58-.59-1.81-1-3.58.83Zm-27.12,18.36.54,2,1.25-2.36,1.2,4.47,1.33-.35-1.2-4.46,2.25,1.4-.53-2-3.12-2Zm-32.16-6.2-1,1.8,2.56-.78-2.31,4,1.18.69,2.32-4,.59,2.58,1-1.81-.82-3.58Zm-18.36-27.12-2,.54,2.36,1.25-4.48,1.2.36,1.33,4.46-1.2-1.41,2.25,2-.54,2-3.12Zm6.19-32.16-1.8-1,.79,2.56-4-2.31-.69,1.19,4,2.31-2.58.59,1.8,1,3.58-.82ZM1256.06,903l-.54-2-1.25,2.36-1.19-4.48-1.34.37,1.2,4.45-2.25-1.41.54,2,3.12,2Zm32.17,6.21,1-1.81-2.56.79,2.32-4-1.19-.69-2.31,4-.59-2.59-1,1.81.83,3.59Zm14.7,16.56,1.81-1-2.61-.6,4-2.32-.69-1.19-4,2.31.78-2.53-1.81,1-1.08,3.51Zm2.34,32.67,2,.54-1.42-2.27,4.48,1.2.35-1.33-4.45-1.19,2.34-1.24-2-.54-3.24,1.72Zm-21.44,24.75,1,1.81.6-2.62,2.32,4,1.19-.69-2.31-4,2.54.78-1-1.81-3.51-1.08Zm-32.67,2.34-.54,2,2.27-1.41-1.21,4.47,1.33.35,1.19-4.45,1.25,2.34.54-2-1.73-3.25Zm-24.75-21.44-1.81,1,2.61.6-4,2.31.68,1.19,4-2.31-.77,2.53,1.8-1,1.09-3.52Zm-2.35-32.68-2-.53,1.42,2.27L1219,932l-.35,1.34,4.45,1.19-2.35,1.24,2,.54,3.24-1.72Zm21.45-24.74-1-1.81-.6,2.61-2.32-4-1.19.69,2.31,4-2.54-.78,1,1.8,3.51,1.09Zm32.67-2.35.54-2-2.27,1.42,1.2-4.49-1.33-.34-1.19,4.45-1.25-2.34-.53,2,1.72,3.25Zm9.74,36.26-1.08.14,1.15.82-2.43.32.1.72,2.41-.32-.89,1.08,1.09-.15,1.24-1.49Zm10.55-.91.22,1.69,1.28-1.8.5,3.8,1.13-.15-.5-3.77,1.68,1.39-.22-1.7-2.34-1.94Zm-14.28,18.63-.87-.68.23,1.4-1.94-1.49-.44.58,1.93,1.49-1.39.13.87.67,1.94-.19Zm8.1,6.81-1,1.36,2.18-.37-2.32,3,.89.69,2.32-3,.21,2.17,1-1.36-.29-3ZM1269,968.23l-.15-1.09-.81,1.15-.32-2.43-.72.1.32,2.41-1.09-.89.15,1.09,1.49,1.23Zm.91,10.54-1.7.22,1.8,1.28-3.79.5.15,1.12,3.77-.49-1.39,1.68,1.7-.23,1.94-2.32Zm-18.63-14.28.67-.88-1.4.25,1.49-1.94-.58-.45-1.48,1.94-.13-1.4-.67.87.19,1.94Zm-6.81,8.11-1.36-1.06.37,2.18-3-2.32-.68.9,3,2.31-2.18.21,1.37,1,3-.29-.51-3Zm-3.08-23.27,1.09-.15-1.15-.82,2.42-.32-.1-.72-2.4.32.88-1.08-1.08.14-1.24,1.5Zm-10.54.91-.22-1.71-1.29,1.8-.5-3.78-1.12.15.5,3.76-1.69-1.39.23,1.7,2.33,1.94Zm14.27-18.64.88.67-.24-1.39,1.94,1.48.44-.58-1.93-1.48,1.39-.12-.87-.67-1.93.18Zm-8.1-6.81,1-1.36-2.18.37,2.32-3-.89-.68-2.31,3-.21-2.19-1,1.37.28,3Zm23.27-3.08.15,1.09.81-1.15.33,2.42.72-.09-.32-2.42,1.08.89-.15-1.09-1.49-1.23Zm-.91-10.54,1.7-.23-1.8-1.28,3.79-.49-.15-1.12-3.76.49,1.39-1.69-1.7.23-1.94,2.33ZM1278,925.45l-.68.87,1.4-.23-1.48,1.93.57.44,1.49-1.92.12,1.38.67-.87-.18-1.93Zm6.81-8.1,1.36,1-.38-2.18,3,2.33.69-.9-3-2.32,2.19-.2-1.38-1-3,.27Zm1.16,17.4-1,.41,1.33.49-2.26.94.27.68,2.25-.94-.58,1.28,1-.42.82-1.77Zm10-3.61.65,1.59.77-2.08,1.46,3.53,1.05-.43-1.46-3.51,2,.9-.65-1.59-2.76-1.26Zm-9,21.69-1-.42.58,1.28-2.26-.93-.27.67,2.25.93-1.31.49,1,.42,1.82-.67Zm9.59,4.48-.66,1.58,2-.91-1.46,3.53,1,.43,1.45-3.51.76,2,.66-1.58-1.05-2.84Zm-21.68,9-.42-1-.49,1.33-.94-2.26-.67.28.93,2.24-1.27-.58.42,1,1.76.81Zm3.61,10-1.59.65,2.08.77-3.54,1.46.43,1.05,3.52-1.46-.91,2,1.59-.66,1.26-2.76Zm-21.69-9,.42-1-1.29.59.94-2.26-.67-.27-.94,2.24-.48-1.31-.42,1,.67,1.81Zm-4.49,9.59-1.58-.66.92,2-3.53-1.47-.43,1,3.51,1.46-2,.75,1.58.66,2.85-1Zm-9-21.68,1-.42-1.33-.49,2.25-.94-.27-.67-2.25.93.58-1.26-1,.41-.81,1.76Zm-9.95,3.62-.66-1.6-.76,2.08-1.47-3.54-1,.44,1.46,3.51-2-.91.66,1.59,2.76,1.26Zm9-21.7,1,.42-.59-1.28,2.26.93.27-.67-2.24-.93,1.31-.49-1-.42-1.81.67Zm-9.59-4.48.66-1.59-2,.92,1.47-3.53-1.05-.43-1.46,3.51-.76-2-.65,1.59,1,2.84Zm21.68-9,.42,1,.5-1.33.93,2.26.67-.28-.92-2.25,1.26.58-.42-1-1.76-.81Zm-3.61-9.94,1.59-.66-2.07-.77,3.53-1.46-.43-1-3.51,1.45.9-2-1.59.66-1.26,2.76Zm21.69,9-.41,1,1.28-.59-.93,2.26.66.28.94-2.25.49,1.31.41-1-.66-1.81Zm4.49-9.59,1.58.66-.91-2,3.52,1.46.44-1-3.51-1.45,2-.77-1.58-.65-2.84,1Zm5.62,16.51-.87.67,1.41.14-1.94,1.49.44.57,1.93-1.49-.23,1.38.87-.66.33-1.92Zm8.67-6.06,1.06,1.36.2-2.19,2.32,3,.91-.68-2.32-3,2.15.36-1-1.36-3-.51Zm-3,23.27-1.09-.14.9,1.09-2.43-.32-.09.72,2.41.32-1.13.81,1.09.14,1.58-1.12Zm10.42,1.85-.22,1.7,1.7-1.4-.5,3.78,1.12.15.5-3.77,1.27,1.79.22-1.71L1301,946.7Zm-18.62,14.31-.67-.87-.13,1.4-1.49-1.94-.58.44,1.49,1.93-1.38-.23.67.87,1.91.33Zm6.06,8.67-1.35,1,2.19.2-3,2.33.69.9,3-2.31-.37,2.14,1.37-1,.51-3Zm-23.27-3.05.14-1.09-1.09.9.32-2.42-.72-.1-.31,2.42-.81-1.14-.15,1.09,1.13,1.58ZM1261,979l-1.7-.22,1.41,1.69-3.79-.49-.14,1.12,3.76.5-1.78,1.27,1.71.22,2.47-1.75Zm-14.3-18.61.87-.68-1.41-.12,1.95-1.5-.45-.57-1.93,1.48.23-1.38-.86.67-.33,1.91Zm-8.67,6.06-1-1.36-.21,2.2-2.32-3-.9.7,2.31,3-2.15-.37,1,1.37,3,.51Zm3-23.28,1.1.14-.9-1.09,2.42.32.09-.71-2.41-.32,1.14-.81-1.09-.14-1.58,1.12Zm-10.41-1.84.22-1.71-1.7,1.42.49-3.8-1.11-.14-.5,3.77-1.28-1.79-.21,1.71,1.75,2.47ZM1249.27,927l.67.87.13-1.41,1.49,1.95.58-.45-1.49-1.93,1.38.23-.66-.86-1.92-.33Zm-6.06-8.67,1.36-1-2.2-.21,3-2.33-.69-.89-3,2.3.37-2.15-1.36,1-.52,3Zm23.27,3-.14,1.09,1.09-.91-.32,2.43.72.09.31-2.4.82,1.13.14-1.09-1.12-1.58Zm1.85-10.42,1.7.22-1.4-1.7,3.78.49.14-1.11-3.76-.5,1.78-1.27-1.7-.22-2.47,1.76Zm5.13,4-1.33-.36.94,1.5-3-.79-.23.88,2.93.78-1.55.83,1.34.35,2.14-1.14Z"/><path class="cls-4" d="M1454.09,954.05s0,.08-.07.12a1.35,1.35,0,0,1-1.37.94h-3.22a1.31,1.31,0,0,1-1.39-1.41V937.47a3.26,3.26,0,0,0-.07-.76,1.73,1.73,0,0,0-1.61-1.3,13.5,13.5,0,0,0-1.42-.07h-10c-.21,0-.26,0-.26.26q0,9,0,18a1.41,1.41,0,0,1-.71,1.35,1.36,1.36,0,0,1-.73.17h-3.18a1.35,1.35,0,0,1-1.44-1.38V930.92a1.3,1.3,0,0,1,1-1.39,1.58,1.58,0,0,1,.38,0c5.82,0,11.64,0,17.47,0a7.91,7.91,0,0,1,3,.61,5.26,5.26,0,0,1,3,3.32,11.31,11.31,0,0,1,.52,2.76s0,.13,0,.17v.09a1.28,1.28,0,0,0,0,.39,1.48,1.48,0,0,0,0,.42Z"/><path class="cls-4" d="M1454.09,937.27c-.09-.13,0-.29,0-.43a0,0,0,0,1,0,0Z"/><path class="cls-4" d="M1454.09,936.84h0c0-.13-.06-.26,0-.38Z"/><path class="cls-4" d="M1395.35,942.25q0-5.67,0-11.35a1.31,1.31,0,0,1,1-1.37,1.68,1.68,0,0,1,.45,0h20.4a1.3,1.3,0,0,1,1.44,1.45v2.93a1.36,1.36,0,0,1-1.45,1.47h-15.49c-.22,0-.29,0-.28.27,0,1.18,0,2.35,0,3.53,0,.2.06.24.25.24h9.84a1.39,1.39,0,0,1,1.48,1.14,1.63,1.63,0,0,1,0,.31v3a1.33,1.33,0,0,1-1.4,1.41h-9.92c-.36,0-.31-.05-.31.32,0,1.16,0,2.31,0,3.46,0,.21,0,.26.26.26H1417a1.49,1.49,0,0,1,1.37.66,1.42,1.42,0,0,1,.2.78v3a1.31,1.31,0,0,1-1.35,1.36h-6c-4.79,0-9.58,0-14.37,0a1.46,1.46,0,0,1-1.56-1.57C1395.37,949.78,1395.35,946,1395.35,942.25Z"/><path class="cls-4" d="M1349.92,966.36a3.74,3.74,0,0,1,1.89-1.07,3.62,3.62,0,0,1,1.39-.06,1.92,1.92,0,0,1,1.71,1.72,5.28,5.28,0,0,1,.06.88c0,1.89,0,3.79,0,5.68,0,.19,0,.27-.26.27-.57,0-.57,0-.57-.59V967.5a1.44,1.44,0,0,0-1.42-1.48,3.14,3.14,0,0,0-2.3.73.46.46,0,0,0-.18.39c0,2.12,0,4.24,0,6.36,0,.22-.06.28-.27.28-.58,0-.58,0-.58-.57v-5.6a1.52,1.52,0,0,0-1.56-1.6,3.43,3.43,0,0,0-2.09.67.5.5,0,0,0-.24.45c0,2.13,0,4.26,0,6.39,0,.22-.07.26-.27.26-.59,0-.59,0-.59-.6q0-3.76,0-7.54c0-.19.06-.25.24-.28.62-.08.62-.09.62.52,0,.08,0,.19,0,.22s.14-.08.2-.13a3.06,3.06,0,0,1,3.18-.57A2.22,2.22,0,0,1,1349.92,966.36Z"/><path class="cls-4" d="M1326.78,968.13a9,9,0,0,0,.37,2.89,2.94,2.94,0,0,0,2.72,2.07,4.83,4.83,0,0,0,2.91-.62c.11-.07.14,0,.18.07.27.87.38.67-.4,1a5.45,5.45,0,0,1-4.65-.15,3.65,3.65,0,0,1-1.7-2.13,9.55,9.55,0,0,1-.41-3.83,6.66,6.66,0,0,1,.51-2.19,3.92,3.92,0,0,1,3.45-2.43,6.07,6.07,0,0,1,3,.42c.17.07.19.15.14.3s-.07.46-.22.56-.35-.11-.53-.17a5,5,0,0,0-3.13-.14,2.76,2.76,0,0,0-1.88,2A7.83,7.83,0,0,0,1326.78,968.13Z"/><path class="cls-4" d="M1372.6,973c-.21.13-.39.25-.58.35a4.32,4.32,0,0,1-2.66.5,1.85,1.85,0,0,1-1.67-1.64,5.81,5.81,0,0,1-.06-.93v-5.65c0-.19,0-.27.25-.29.61-.06.61-.08.61.55v5.45a2.72,2.72,0,0,0,0,.64,1.22,1.22,0,0,0,1.16,1.08,4.3,4.3,0,0,0,2.8-.72c.12-.08.1-.18.1-.29q0-3.19,0-6.39c0-.22.05-.3.29-.33.58-.06.58-.08.58.5v7.67c0,.19,0,.28-.24.25s-.44.1-.57,0,0-.36,0-.55A1.1,1.1,0,0,0,1372.6,973Z"/><path class="cls-4" d="M1377.34,969.12c0-.94,0-1.87,0-2.81,0-.21-.07-.26-.26-.24s-.43,0-.64,0-.16,0-.16-.16c0-.6,0-.6.57-.6s.48,0,.48-.48,0-.79,0-1.19a.19.19,0,0,1,.17-.23c.68-.21.68-.21.68.49,0,.41,0,.81,0,1.22,0,.16,0,.2.2.2h1.69c.16,0,.21,0,.2.2,0,.56,0,.56-.58.56h-1.28c-.14,0-.2,0-.2.17,0,1.86,0,3.72,0,5.58a2.84,2.84,0,0,0,.06.5.9.9,0,0,0,.93.81,3,3,0,0,0,1.22-.18c.16-.06.23-.06.27.13.12.73.19.6-.49.77a3.24,3.24,0,0,1-1.42,0,1.63,1.63,0,0,1-1.38-1.49,6.35,6.35,0,0,1-.08-1.07Z"/><path class="cls-4" d="M1431.81,969.37a6.75,6.75,0,0,0,.3,2.32,2,2,0,0,0,2,1.44,4.12,4.12,0,0,0,2.23-.45c.12-.06.16,0,.2.08.23.6.22.67-.34.87a4.69,4.69,0,0,1-3.3,0,2.82,2.82,0,0,1-1.73-2,7.13,7.13,0,0,1,.12-4.31,3.06,3.06,0,0,1,3.32-2.11,6.9,6.9,0,0,1,1.68.3c.12,0,.17.09.14.22s-.07.31-.09.46-.11.19-.26.13a4.46,4.46,0,0,0-2-.3,2.11,2.11,0,0,0-2.06,1.81A5.75,5.75,0,0,0,1431.81,969.37Z"/><path class="cls-4" d="M1440.45,969.12c0,.81,0,1.61,0,2.41a3.89,3.89,0,0,0,0,.76.9.9,0,0,0,1,.84,2.87,2.87,0,0,0,1.23-.2c.13,0,.18,0,.21.11.18.78.16.66-.47.81a3.15,3.15,0,0,1-1.4,0,1.65,1.65,0,0,1-1.39-1.59,7.66,7.66,0,0,1-.05-.95c0-1.67,0-3.34,0-5,0-.22-.07-.27-.27-.25s-.43,0-.64,0-.14,0-.15-.15c0-.61,0-.61.57-.61s.48,0,.48-.48,0-.81,0-1.22c0-.12,0-.16.15-.2.67-.22.71-.2.71.49,0,.41,0,.81,0,1.22,0,.15,0,.2.2.2h1.67c.17,0,.21.05.2.22,0,.54,0,.54-.56.54s-.85,0-1.28,0c-.18,0-.23,0-.23.23C1440.45,967.23,1440.45,968.18,1440.45,969.12Z"/><path class="cls-4" d="M1419.67,970.29v4.5a2.42,2.42,0,0,1-2,2.42c-.35.07-.35.07-.43-.27v0c-.1-.45-.1-.45.35-.55a1.47,1.47,0,0,0,1.2-1.48c0-.17,0-.34,0-.5,0-2.93,0-5.85,0-8.77,0-.21,0-.29.26-.26s.45-.08.56,0,0,.36,0,.55v4.34Z"/><path class="cls-4" d="M1404.59,966.36a6.32,6.32,0,0,1,.77-.69,2.28,2.28,0,0,1,1.89-.44c.13,0,.2.07.17.22,0,0,0,0,0,0,0,.2,0,.45-.09.6s-.36,0-.54,0a2.55,2.55,0,0,0-2.19,1.08.4.4,0,0,0-.06.3c0,2,0,4,0,6,0,.22-.06.28-.27.28-.59,0-.59,0-.59-.58,0-2.52,0-5,0-7.56,0-.19.06-.26.24-.28.62-.08.62-.09.62.52v.45Z"/><path class="cls-4" d="M1419.81,963a.56.56,0,1,1-1.12,0,.55.55,0,0,1,.56-.58A.56.56,0,0,1,1419.81,963Z"/><path class="cls-4" d="M1351.21,937.52a11.94,11.94,0,0,0-.59-4.11,5.28,5.28,0,0,0-2.95-3.25,7.84,7.84,0,0,0-3.05-.65c-2,0-4.09,0-6.13,0h-5.25a12,12,0,0,0-2.67.25,5.4,5.4,0,0,0-4.2,3.58,10.3,10.3,0,0,0-.59,3.34c0,3.47,0,7,0,10.42a12.33,12.33,0,0,0,.58,4.13,5.25,5.25,0,0,0,2.81,3.17,8,8,0,0,0,3.47.71c3.78,0,7.55,0,11.33,0a10.24,10.24,0,0,0,3-.38,5.31,5.31,0,0,0,3.5-3,9.88,9.88,0,0,0,.78-3.82C1351.25,944.46,1351.2,941,1351.21,937.52Zm-6,9.58c0,1.46-.61,2.08-2.07,2.15l-.77,0h-7.62a9.39,9.39,0,0,1-1.19-.06,1.71,1.71,0,0,1-1.62-1.77c0-.11,0-.22,0-.33v-9.6a3.47,3.47,0,0,1,.07-.79,1.64,1.64,0,0,1,1.54-1.29,8.2,8.2,0,0,1,1.21-.08h7.65a7.14,7.14,0,0,1,1.38.11,1.64,1.64,0,0,1,1.41,1.62,5.72,5.72,0,0,1,0,.59c0,1.55,0,3.1,0,4.65S1345.17,945.5,1345.16,947.1Z"/><path class="cls-4" d="M1386.15,933.39a5.18,5.18,0,0,0-2.85-3.19,7.64,7.64,0,0,0-3.26-.69c-5.67,0-11.35,0-17,0a2.34,2.34,0,0,0-.38,0,1.31,1.31,0,0,0-1,1.39v22.88a1.32,1.32,0,0,0,1.4,1.32h3.24a1.37,1.37,0,0,0,.4-.05,1.34,1.34,0,0,0,1-1.42v-8.13c0-.23.06-.28.28-.28h11.3a11.57,11.57,0,0,0,2.56-.24,5.66,5.66,0,0,0,4.58-4.38,11.83,11.83,0,0,0,.36-3A12.7,12.7,0,0,0,1386.15,933.39ZM1380.6,938a1.55,1.55,0,0,1-1.22,1.2,3.94,3.94,0,0,1-1.13.14h-10.39c-.17,0-.21,0-.21-.21,0-1.2,0-2.4,0-3.6,0-.19.06-.23.24-.23h10.53a4.2,4.2,0,0,1,1,.13,1.55,1.55,0,0,1,1.22,1.31A2.79,2.79,0,0,1,1380.6,938Z"/><path class="cls-4" d="M1364.45,967.08a2.44,2.44,0,0,0-1.69-1.76,3.64,3.64,0,0,0-3.23.6c-.06.05-.1.12-.22.13v-.18c0-.59,0-.59-.6-.51-.18,0-.26.07-.26.29,0,1.83,0,3.67,0,5.5s0,3.8,0,5.7c0,.18,0,.26.23.24a1.41,1.41,0,0,1,.41,0c.18,0,.23,0,.22-.23,0-1,0-2,0-3.07,0-.17,0-.22.21-.15a4.88,4.88,0,0,0,2.18.26,3.05,3.05,0,0,0,2.62-1.89,5.8,5.8,0,0,0,.44-2A7.79,7.79,0,0,0,1364.45,967.08Zm-.88,4.53a2.19,2.19,0,0,1-2,1.51,4.63,4.63,0,0,1-2-.29.23.23,0,0,1-.18-.26V967a.23.23,0,0,1,.09-.23,3.69,3.69,0,0,1,3-.65,1.58,1.58,0,0,1,1.12,1,6.19,6.19,0,0,1,.38,2.36A6.65,6.65,0,0,1,1363.57,971.61Z"/><path class="cls-4" d="M1398,962.83a13.06,13.06,0,0,0-3.18.15c-.16,0-.21.08-.21.26,0,1.72,0,3.44,0,5.17v4.71c0,.21-.06.48,0,.6s.4,0,.62,0,.25,0,.25-.24c0-1.31,0-2.62,0-3.93,0-.19,0-.25.24-.25a15.2,15.2,0,0,0,2.43-.09,3.08,3.08,0,0,0,2.73-3.15A3,3,0,0,0,1398,962.83Zm2,3.5a2.27,2.27,0,0,1-2.4,2.21c-.61,0-1.24,0-1.86,0-.16,0-.21,0-.21-.21,0-.75,0-1.51,0-2.26v-2.22c0-.1,0-.22.13-.23a9.79,9.79,0,0,1,2.42,0A2.3,2.3,0,0,1,1400,966.33Z"/><path class="cls-4" d="M1341.61,967.89a3,3,0,0,0-2.64-2.66,3.21,3.21,0,0,0-3.74,2.23,7,7,0,0,0,0,4.35,2.88,2.88,0,0,0,1.2,1.64,3.17,3.17,0,0,0,1.49.46,3.21,3.21,0,0,0,3.28-1.64,5.38,5.38,0,0,0,.58-2.51A9.31,9.31,0,0,0,1341.61,967.89Zm-1,3.59a2.07,2.07,0,0,1-2.12,1.65,2.57,2.57,0,0,1-1.49-.29,2.32,2.32,0,0,1-1-1.6,6.46,6.46,0,0,1-.15-1.55,6.19,6.19,0,0,1,.24-2.1,2.22,2.22,0,0,1,2.52-1.6,2.36,2.36,0,0,1,1.17.36,2.13,2.13,0,0,1,.85,1.28A7.39,7.39,0,0,1,1340.61,971.48Z"/><path class="cls-4" d="M1415.65,967.49a3,3,0,0,0-.9-1.55,3.27,3.27,0,0,0-2.48-.74,3,3,0,0,0-2.57,1.56,5.46,5.46,0,0,0-.66,2.82,7.89,7.89,0,0,0,.24,1.95,2.89,2.89,0,0,0,2.2,2.29,3.32,3.32,0,0,0,4.25-2.61A7.56,7.56,0,0,0,1415.65,967.49Zm-.9,4a2.05,2.05,0,0,1-2.1,1.63,2.71,2.71,0,0,1-1.48-.27,2.17,2.17,0,0,1-1-1.42,4.39,4.39,0,0,1-.17-1c0-.31,0-.63,0-.85a6.29,6.29,0,0,1,.24-2,2.21,2.21,0,0,1,2.51-1.61,2.24,2.24,0,0,1,1.15.34,2.12,2.12,0,0,1,.88,1.29A7.3,7.3,0,0,1,1414.75,971.5Z"/><path class="cls-4" d="M1428.62,967.36a2.42,2.42,0,0,0-1.3-1.86,3.09,3.09,0,0,0-4.4,1.75,7.33,7.33,0,0,0-.12,4.3,2.84,2.84,0,0,0,2.26,2.23,5.13,5.13,0,0,0,3-.2c.56-.22.58-.28.34-.84-.07-.15-.13-.15-.25-.08a4,4,0,0,1-2.54.42,2.12,2.12,0,0,1-1.85-1.53,6.33,6.33,0,0,1-.25-1.78c0-.19,0-.25.24-.25.78,0,1.57,0,2.36,0h2.43c.09,0,.19,0,.2-.13A7.75,7.75,0,0,0,1428.62,967.36Zm-1,1.5h-4c-.16,0-.23,0-.22-.21a4.05,4.05,0,0,1,.44-1.71,2.12,2.12,0,0,1,2.26-1,1.84,1.84,0,0,1,1.64,1.74c0,.32,0,.63,0,1S1427.83,968.86,1427.65,968.86Z"/><path class="cls-4" d="M1388.48,967.63a2.69,2.69,0,0,0-1.14-2,3.09,3.09,0,0,0-4.58,1.57,7.4,7.4,0,0,0-.15,4.32,2.8,2.8,0,0,0,1.39,1.93,4.62,4.62,0,0,0,3.85.11c.57-.22.56-.25.31-.81-.06-.13-.11-.17-.24-.09a4.07,4.07,0,0,1-2.54.42,2.11,2.11,0,0,1-1.76-1.28,5.42,5.42,0,0,1-.34-2.15c0-.16.12-.12.2-.12h4.81c.17,0,.23,0,.23-.21A11.93,11.93,0,0,0,1388.48,967.63Zm-1,1.23h-4c-.09,0-.21,0-.19-.12a3.61,3.61,0,0,1,.6-2A2.07,2.07,0,0,1,1386,966a1.77,1.77,0,0,1,1.6,1.65,7.68,7.68,0,0,1,.06,1.07C1387.68,968.82,1387.64,968.86,1387.49,968.86Z"/><path class="cls-4" d="M1451.2,966.42l.3-.07a1.08,1.08,0,0,0,.5-1.74,1.13,1.13,0,0,0-.83-.36c-.5,0-1,0-1.5,0-.19,0-.25,0-.25.24,0,1.11,0,2.23,0,3.34,0,.37-.09.33.34.34.16,0,.2,0,.19-.2,0-.32,0-.64,0-1,0-.53,0-.52.53-.54a.35.35,0,0,1,.35.21c.26.44.53.88.8,1.32,0,.08.08.16.19.15h.48Zm-1.14-.45c-.08,0-.09-.05-.09-.11,0-.32,0-.65,0-1,0-.11.07-.12.16-.12h1.07a.53.53,0,0,1,.51.55.54.54,0,0,1-.45.61A5.83,5.83,0,0,1,1450.06,966Z"/><path class="cls-4" d="M1450.71,969.5a3.33,3.33,0,1,1,3.33-3.33A3.34,3.34,0,0,1,1450.71,969.5Zm0-6.28a3,3,0,1,0,3,2.95A2.95,2.95,0,0,0,1450.71,963.22Z"/></svg>